<svg width="123" height="30" viewBox="0 0 123 30" fill="none" xmlns="http://www.w3.org/2000/svg">
<path fill-rule="evenodd" clip-rule="evenodd" d="M17.5608 0.019634C17.5259 0.0533945 15.9081 0.134925 13.9654 0.200608C10.4009 0.321411 7.53281 0.468396 5.57405 0.630768C4.98735 0.679457 4.05052 0.728835 3.4925 0.740548C2.7529 0.756165 2.43763 0.870996 2.33048 1.16382C2.24941 1.38475 2.0491 1.72075 1.88482 1.91022C1.28152 2.60679 0.966248 7.94348 0.989479 17.068C1.00821 24.5121 1.14925 29.4519 1.35169 29.7686C1.54157 30.0654 3.61909 30.0709 20.8639 29.8185C25.9486 29.7443 30.4412 29.6331 30.8475 29.572C31.5269 29.4696 31.6049 29.364 31.8197 28.2595C31.9546 27.5662 32.0373 22.8358 32.0155 17.068C31.9946 11.5733 32.048 5.78579 32.1338 4.20686C32.2919 1.30024 32.1504 0.448645 31.5468 0.673026C31.3636 0.741236 30.9644 0.638576 30.6595 0.44497C30.3547 0.251364 29.8927 0.0869248 29.6329 0.0795756C27.5885 0.0205521 17.6108 -0.028825 17.5608 0.019634ZM30.1987 1.65024C30.7593 1.68033 30.7617 1.69204 30.592 3.57528C30.4981 4.61727 30.409 6.47777 30.394 7.70923L30.3665 9.94845H29.7009C27.7144 9.94845 11.062 10.1878 9.24835 10.2422C8.07494 10.2776 6.99375 10.3798 6.84583 10.4691C6.69791 10.5587 6.50329 11.1076 6.41345 11.6888C6.32337 12.2703 6.202 12.9692 6.14345 13.2418C6.0849 13.5147 6.01544 14.6701 5.98889 15.8092C5.94314 17.7666 5.97751 17.9276 6.61518 18.7374C7.48919 19.8476 8.33712 19.875 9.96211 18.8447C10.8563 18.2779 11.1448 17.9557 11.1448 17.5241C11.1448 17.0258 11.0544 16.9631 10.4336 17.0303C10.0425 17.0728 9.42116 17.3829 9.05302 17.7193C8.39947 18.3165 8.37529 18.3206 8.04555 17.8854C7.8597 17.6401 7.70751 17.1546 7.70751 16.8062C7.70751 16.2545 7.90119 16.0832 9.21018 15.4781C10.6225 14.8249 13.0151 12.8746 13.5515 11.9394C13.7782 11.5439 14.2807 11.5196 21.9251 11.5317C26.3981 11.5389 30.1157 11.6009 30.1869 11.6698C30.3995 11.876 30.4654 20.9723 30.2542 20.9723C30.0866 20.9723 28.8115 19.6984 27.0884 17.8098C26.4583 17.1192 25.8694 17.495 26.2122 18.3688C26.5818 19.3104 28.5685 21.6673 29.5416 22.3188L30.4464 22.9244L30.4644 28.0919L29.457 28.1153C28.9028 28.1281 26.4761 28.1651 24.0641 28.1975C21.6521 28.2301 16.5318 28.3332 12.6856 28.4269C8.83944 28.5206 4.9992 28.6127 4.15174 28.6318L2.61091 28.666L2.64291 18.3312C2.67444 8.19336 2.91173 2.78019 3.34245 2.38264C3.85898 1.90563 12.3314 1.54827 22.1676 1.58892C26.2746 1.60592 29.8886 1.63348 30.1987 1.65024ZM18.9703 14.361C17.8581 14.9859 17.3809 16.0132 17.9481 16.5628C18.404 17.0044 19.0011 16.8831 19.4198 16.2642C19.8943 15.5626 20.7904 15.5104 21.612 16.1365C22.1845 16.5729 22.8788 16.5547 22.8788 16.1037C22.8788 15.7215 21.9593 14.7197 21.3081 14.3924C20.5602 14.0165 19.6065 14.0036 18.9703 14.361Z" fill="white"/>
<path fill-rule="evenodd" clip-rule="evenodd" d="M50.8555 6.08309C50.8078 6.1181 50.3978 6.17374 49.9446 6.20669C49.4914 6.23971 49.1052 6.28454 49.0865 6.30644C49.0679 6.32833 48.9485 6.34651 48.8213 6.34692C48.6941 6.34726 48.3733 6.4173 48.1083 6.50247C47.8196 6.59531 47.5912 6.63511 47.5381 6.60187C47.4129 6.52343 47.059 6.57688 47.0051 6.68234C46.9378 6.81386 46.6175 6.9478 46.4408 6.91822C46.3482 6.90269 46.2889 6.92566 46.2933 6.97534C46.2974 7.02105 46.2675 7.04199 46.227 7.02198C45.9899 6.90455 45.6263 6.96517 44.3721 7.33111C44.2759 7.35918 44.1797 7.41645 44.1581 7.45839C44.1367 7.50039 44.0987 7.53463 44.0737 7.5345C44.0487 7.53438 43.9796 7.55763 43.9201 7.58617C43.8606 7.61464 43.6805 7.63206 43.52 7.6248C43.3059 7.6151 43.2199 7.63959 43.1974 7.71663C43.1727 7.80121 43.1443 7.80643 43.0518 7.74347C42.9585 7.67994 42.9215 7.69032 42.855 7.7985C42.8031 7.88278 42.7533 7.90565 42.7193 7.86087C42.6549 7.77585 42.3844 7.78808 42.3922 7.87563C42.3952 7.90955 42.2702 7.96872 42.1144 8.00719C41.9586 8.04566 41.8334 8.10307 41.8362 8.13486C41.839 8.16659 41.5395 8.27844 41.1706 8.3833C40.8018 8.48817 40.5017 8.59422 40.5039 8.61896C40.5061 8.64369 40.4679 8.67111 40.4189 8.67982C40.1807 8.72224 39.6917 8.94581 39.6294 9.04066C39.5858 9.107 39.4944 9.13665 39.3883 9.11887C39.236 9.09339 38.8574 9.27548 38.7653 9.41847C38.7477 9.44576 38.6098 9.50205 38.4589 9.54359C38.1133 9.63869 37.9329 9.84744 37.8834 10.2098C37.8234 10.6481 37.9838 10.8625 38.3494 10.8327C38.5069 10.8198 38.6698 10.826 38.7115 10.8464C38.7531 10.8669 38.8909 10.8588 39.0175 10.8285C39.1791 10.79 39.2445 10.7356 39.2366 10.6463C39.2226 10.4892 40.0802 9.96129 40.5233 9.85423C40.689 9.8142 40.8217 9.75031 40.8183 9.71222C40.8149 9.67421 40.8653 9.65805 40.9302 9.67632C40.9952 9.69465 41.0837 9.68291 41.127 9.65035C41.1703 9.61772 41.2295 9.58442 41.2587 9.57643C41.2878 9.56845 41.3191 9.55485 41.3284 9.5463C41.3376 9.53767 41.4247 9.5101 41.522 9.485C41.6193 9.45982 41.7609 9.40428 41.8367 9.36151C41.9125 9.31875 42.0941 9.25364 42.2401 9.21694C42.3861 9.18017 42.5027 9.1183 42.4993 9.07944C42.4955 9.03697 42.5949 9.01866 42.7486 9.03357C42.9323 9.05136 43.0019 9.03299 42.9961 8.96805C42.9917 8.91838 43.0096 8.89555 43.0359 8.91728C43.0623 8.939 43.1975 8.90259 43.3364 8.83639C43.4753 8.77018 43.7796 8.66205 44.0126 8.59614C44.2456 8.53017 44.4611 8.45851 44.4916 8.4368C44.5496 8.39543 45.2614 8.27886 45.6684 8.24405C45.7992 8.23287 45.9736 8.17956 46.056 8.12562C46.1385 8.0716 46.2859 8.01149 46.3837 7.99197C46.6039 7.94804 46.7399 7.9028 46.883 7.82591C46.9438 7.79327 47.0233 7.7719 47.0597 7.77845C47.1109 7.78771 48.1994 7.60049 48.3715 7.5528C48.3909 7.54742 48.445 7.51429 48.4916 7.47923C48.5383 7.4441 48.6132 7.4336 48.6582 7.45586C48.7639 7.50827 49.796 7.40459 49.8955 7.33159C49.9567 7.28659 50.7804 7.15626 51.2998 7.10929C51.5155 7.08973 53.2366 7.11971 53.7542 7.15199C54.1592 7.17724 54.799 7.3874 54.8089 7.4984C54.813 7.54525 54.8666 7.59774 54.9278 7.61504C55.1362 7.6738 55.0768 8.37303 54.849 8.543C54.8016 8.57841 54.7655 8.63861 54.7689 8.67684C54.7723 8.71514 54.6921 8.84152 54.5906 8.95768C54.4891 9.07393 54.3891 9.22771 54.3682 9.29936C54.3473 9.37107 54.3004 9.41498 54.2642 9.39702C54.2278 9.379 54.0795 9.49387 53.9347 9.65221C53.4338 10.1997 53.3352 10.2895 53.2236 10.2991C53.162 10.3044 53.0896 10.3536 53.0626 10.4086C53.0024 10.5311 52.6573 10.7999 52.5188 10.8323C52.4628 10.8454 52.3834 10.9045 52.3423 10.9637C52.2528 11.0926 51.8745 11.3661 51.4085 11.6389C51.2217 11.7482 51.0718 11.8712 51.0755 11.9123C51.0791 11.9534 51.0504 11.9712 51.0116 11.9521C50.9729 11.9328 50.9238 11.9512 50.9024 11.9929C50.8811 12.0345 50.8137 12.0728 50.7526 12.0781C50.6915 12.0834 50.5525 12.1754 50.4438 12.2827C50.3351 12.3899 50.1906 12.4825 50.1227 12.4883C50.0548 12.4941 49.7249 12.6652 49.3897 12.8685C49.0545 13.0718 48.7518 13.224 48.7172 13.2069C48.6827 13.1898 48.6571 13.2061 48.6604 13.243C48.6637 13.2799 48.5873 13.3371 48.4907 13.37C48.3941 13.4029 48.3178 13.461 48.3212 13.499C48.3246 13.5372 48.2548 13.5756 48.166 13.5845C48.0771 13.5934 47.9459 13.6527 47.8743 13.7164C47.8027 13.7801 47.6372 13.8414 47.5064 13.8526C47.3757 13.8639 47.2711 13.8995 47.2739 13.9318C47.2768 13.9641 47.2032 14.0393 47.1103 14.099C46.9725 14.1875 46.9195 14.1925 46.8219 14.1261C46.6991 14.0425 46.7024 14.0805 46.6704 12.3938C46.6667 12.1983 46.659 11.8057 46.6533 11.5214C46.6476 11.2371 46.6572 10.942 46.6745 10.8657C46.7202 10.6647 46.669 9.65264 46.6013 9.41845C46.5453 9.22456 46.5341 9.22096 46.2008 9.28916C46.0122 9.32774 45.8363 9.33077 45.8098 9.29589C45.7289 9.18915 45.4805 9.24897 45.4422 9.38448C45.4222 9.45476 45.3703 9.54731 45.3266 9.59022C45.2106 9.7043 45.1858 9.98105 45.2187 10.7942C45.2349 11.1931 45.2362 11.7126 45.2216 11.9488C45.207 12.185 45.2018 12.4578 45.2101 12.555C45.2468 12.9858 45.2419 13.8251 45.2011 14.1183C45.1766 14.2946 45.1761 14.4647 45.2001 14.4963C45.2241 14.5279 45.2315 14.6291 45.2165 14.7211C45.1896 14.8865 44.9729 15.0382 44.63 15.1318C44.3664 15.2037 43.9075 15.4627 43.8512 15.5713C43.824 15.6237 43.7441 15.6715 43.6737 15.6776C43.6032 15.6837 43.5245 15.7134 43.4987 15.7436C43.473 15.7737 43.381 15.8086 43.2945 15.8211C43.071 15.8532 42.8221 15.9642 42.8278 16.029C42.8305 16.0594 42.7746 16.1631 42.7036 16.2595C42.6325 16.3559 42.5776 16.4705 42.5814 16.5143C42.5954 16.6717 42.9465 17.0168 43.0938 17.0178C43.1138 17.018 43.3038 17.0415 43.5162 17.0703C43.8073 17.1095 44.038 17.0914 44.4541 16.9964C45.206 16.8248 45.2204 16.8429 45.0817 17.7867C44.9513 18.6751 44.9771 18.9468 45.2074 19.111C45.3902 19.2412 45.504 19.2614 45.4952 19.1619C45.4922 19.1284 45.5719 19.1092 45.6723 19.1193C45.7904 19.1312 45.8521 19.1056 45.8469 19.047C45.8424 18.9971 45.8593 18.9733 45.8845 18.9941C45.9096 19.0147 46.017 18.9933 46.1232 18.9464C46.334 18.8531 46.3781 18.7013 46.5873 17.3493C46.6839 16.7252 46.7089 16.6612 46.8674 16.6357C46.9631 16.6202 47.5247 16.548 48.1154 16.4752C48.7061 16.4025 49.2502 16.327 49.3244 16.3073C49.3986 16.2877 49.6362 16.2964 49.8523 16.3266C50.0877 16.3595 50.3798 16.3499 50.5806 16.3027C50.7772 16.2565 51.1426 16.2429 51.4631 16.27C51.7639 16.2953 52.063 16.2985 52.1277 16.2769C52.1923 16.2554 52.3458 16.2867 52.4688 16.3465C52.5918 16.4063 52.8999 16.4548 53.1536 16.4542C53.7985 16.4528 54.5126 16.5722 54.7419 16.7198C54.8486 16.7883 54.9922 16.8396 55.0612 16.8337C55.1302 16.8277 55.2883 16.9343 55.4125 17.0705C55.5367 17.2067 55.6705 17.3358 55.7098 17.3577C55.749 17.3794 55.7674 17.482 55.7506 17.5855C55.7274 17.7284 55.6747 17.7777 55.5321 17.79C55.2957 17.8103 54.8076 17.9931 54.6416 18.1235C54.5723 18.1781 54.4688 18.2095 54.4117 18.1934C54.3547 18.1774 54.2708 18.1997 54.2254 18.2431C54.18 18.2865 53.9228 18.3419 53.654 18.3661C53.3851 18.3904 53.1272 18.4472 53.0808 18.4922C53.0344 18.5374 52.8405 18.6065 52.6497 18.6458C52.459 18.6851 52.1114 18.7788 51.8773 18.8538C51.6432 18.9289 51.2756 19.0252 51.0604 19.0679C50.8453 19.1105 50.5899 19.1696 50.493 19.1991C50.3961 19.2287 50.2342 19.2668 50.133 19.2837C50.032 19.3007 49.9189 19.337 49.8817 19.3643C49.8446 19.3916 49.6226 19.432 49.3886 19.4542C49.1545 19.4764 48.8512 19.5191 48.7145 19.5491C48.5779 19.5791 48.2887 19.6242 48.072 19.6495C47.8553 19.6747 47.6597 19.7295 47.6374 19.7714C47.6103 19.8223 47.4535 19.8372 47.1635 19.8165C46.8414 19.7935 46.6973 19.811 46.6017 19.8848C46.4875 19.9729 46.2177 20.0286 44.8319 20.2501C44.6356 20.2814 44.1691 20.3464 43.7952 20.3945C43.4212 20.4426 43.0683 20.5027 43.0108 20.5281C42.6531 20.6864 42.3332 20.807 42.2404 20.8185C42.1813 20.8259 42.0976 20.8586 42.0543 20.8912C42.011 20.9238 41.9228 20.9356 41.8583 20.9174C41.7888 20.8978 41.7275 20.93 41.7082 20.9961C41.6888 21.0627 41.6138 21.1017 41.5227 21.0924C41.2994 21.0697 41.0414 21.1736 41.0511 21.2825C41.0557 21.3344 40.9676 21.4415 40.8552 21.5206C40.6558 21.6608 40.6247 21.7703 40.6821 22.1293C40.7405 22.4943 40.8091 22.5925 41.0948 22.7196C41.2566 22.7915 41.4337 22.8949 41.4883 22.9493C41.5524 23.013 41.7138 23.0373 41.9418 23.0177C42.1364 23.001 42.3868 23.023 42.4983 23.0666C42.6096 23.1103 42.861 23.1528 43.0567 23.1611C43.2525 23.1694 43.451 23.2022 43.4977 23.234C43.5984 23.3025 44.3117 23.2811 45.0208 23.1882C45.1782 23.1676 45.7438 23.1171 46.2776 23.076C46.8114 23.0349 47.5373 22.9561 47.8907 22.9011C48.2441 22.846 48.6639 22.7805 48.8236 22.7554C48.9833 22.7304 49.1537 22.6807 49.2023 22.645C49.2509 22.6094 49.4234 22.559 49.5856 22.5332C49.7478 22.5072 49.8801 22.4816 49.8797 22.4762C49.8777 22.4541 50.1851 22.381 50.5817 22.3092C50.813 22.2673 51.0329 22.2105 51.0705 22.1829C51.1703 22.1097 51.9576 21.8658 52.2327 21.8229C52.3627 21.8026 52.4883 21.7502 52.5119 21.7063C52.5502 21.6351 52.9414 21.4869 53.2254 21.4361C53.2842 21.4255 53.5183 21.3108 53.7457 21.1811C53.973 21.0515 54.2363 20.9263 54.3309 20.903C54.5023 20.8608 54.9001 20.5698 54.9362 20.4604C54.9467 20.4287 55.0333 20.396 55.1288 20.3878C55.2243 20.3796 55.2999 20.3448 55.2969 20.3105C55.2938 20.2762 55.3563 20.2252 55.4356 20.1974C55.5423 20.1599 55.6009 20.1895 55.6609 20.3115C55.7054 20.4021 55.727 20.5275 55.7087 20.59C55.6686 20.7279 55.9087 21.5311 55.988 21.5243C56.019 21.5216 56.0761 21.619 56.1148 21.7407C56.1535 21.8625 56.2337 22.002 56.2929 22.0509C56.3521 22.0998 56.4046 22.1852 56.4095 22.2407C56.4145 22.2962 56.4473 22.3392 56.4826 22.3361C56.5178 22.3331 56.574 22.4085 56.6075 22.5037C56.7363 22.8696 57.5425 23.4967 58.1697 23.7187C58.5089 23.8388 59.3443 23.9158 59.7023 23.8601C60.26 23.7733 61.0936 23.5005 61.2189 23.3637C61.2972 23.2783 61.4065 23.2211 61.4619 23.2367C61.5465 23.2606 61.9302 23.0062 62.0378 22.8549C62.0555 22.83 62.1763 22.7237 62.3063 22.6186C62.5107 22.4534 62.6563 22.2905 62.8926 21.9625C62.9227 21.9208 63.0033 21.8308 63.0718 21.7624C63.1403 21.6941 63.2383 21.5612 63.2897 21.4671C63.341 21.373 63.4288 21.2404 63.4846 21.1723C63.732 20.8707 63.9797 20.4237 64.0387 20.1723C64.074 20.022 64.128 19.9116 64.1588 19.9268C64.1895 19.942 64.2474 19.8332 64.2874 19.685C64.3501 19.453 64.5468 19.0508 64.6582 18.9271C64.6773 18.9058 64.7332 18.7044 64.7824 18.4794C64.8444 18.1959 64.9147 18.0553 65.0112 18.0214C65.1787 17.9625 65.212 18.1087 65.0691 18.2761C65.0151 18.3394 64.995 18.4397 65.0244 18.499C65.1065 18.6648 64.653 21.482 64.5296 21.5725C64.4125 21.6584 64.2727 22.7879 64.3578 22.9608C64.4776 23.2044 64.7412 23.2535 65.2412 23.1253C65.6311 23.0254 65.8273 22.7885 65.93 22.2935C65.9726 22.0881 66.0461 21.866 66.0932 21.7999C66.1404 21.7338 66.2203 21.4679 66.2707 21.2091C66.3212 20.9502 66.398 20.6873 66.4413 20.6248C66.4846 20.5623 66.5494 20.3645 66.5851 20.1852C66.6208 20.0059 66.6856 19.833 66.729 19.801C66.7725 19.769 66.8362 19.5952 66.8706 19.415C66.9051 19.2347 66.9589 19.0851 66.9901 19.0824C67.0215 19.0797 67.0746 18.963 67.1081 18.823C67.1416 18.6831 67.1964 18.5663 67.2298 18.5634C67.2632 18.5605 67.3192 18.4356 67.3545 18.2856C67.3896 18.1358 67.4577 17.9856 67.5057 17.9518C67.5537 17.9181 67.6057 17.7935 67.6213 17.6749C67.637 17.5563 67.6812 17.4565 67.7196 17.4532C67.758 17.4499 67.8148 17.3489 67.8458 17.2288C67.8767 17.1086 67.9294 17.008 67.9629 17.0051C68.0237 16.9999 68.1265 16.7971 68.2878 16.3648C68.3346 16.2393 68.4749 16.0521 68.5996 15.9489C68.7243 15.8456 68.8342 15.7381 68.8438 15.7099C68.8862 15.5856 69.191 15.2499 69.2313 15.2832C69.2558 15.3034 69.2986 15.6477 69.3262 16.0484C69.354 16.4489 69.3888 16.8958 69.4038 17.0413C69.4187 17.1869 69.4004 17.3086 69.363 17.3118C69.3256 17.315 69.3178 17.3634 69.3454 17.4193C69.3731 17.4752 69.3713 17.6825 69.3413 17.88C69.3113 18.0775 69.2904 18.4081 69.2948 18.6146C69.2992 18.8212 69.3022 19.2466 69.3013 19.5599C69.2987 20.5906 69.4522 21.9258 69.6419 22.521C69.823 23.0892 69.9381 23.2853 70.2574 23.5697C70.3579 23.6592 70.442 23.7536 70.4443 23.7796C70.4502 23.8461 71.1659 23.9839 71.5122 23.9852C72.0503 23.9872 72.495 23.4844 72.1469 23.2675C72.0633 23.2155 71.8855 23.1043 71.7518 23.0206C71.618 22.9368 71.422 22.7748 71.3163 22.6606C71.0778 22.4032 70.8193 21.5506 70.8693 21.1869C70.8885 21.0475 70.8624 20.7713 70.8112 20.5732C70.7486 20.3306 70.7361 20.0661 70.7728 19.7628C70.8027 19.5152 70.8058 19.2535 70.7796 19.1813C70.7533 19.1091 70.7544 18.8948 70.7819 18.7051C70.8283 18.3854 70.8336 18.1551 70.8232 16.9014C70.8212 16.647 70.7845 16.0232 70.7419 15.5151C70.6562 14.4957 70.5449 14.2242 70.1673 14.1129C70.063 14.0822 69.9266 14.0315 69.8641 14.0002C69.8016 13.969 69.6032 13.8915 69.4232 13.8279C69.1254 13.7228 69.0818 13.7234 68.939 13.8341C68.8527 13.9009 68.7615 13.9469 68.7364 13.9361C68.7113 13.9254 68.619 13.9975 68.5312 14.0966C68.4433 14.1955 68.3233 14.2878 68.2644 14.3016C68.1003 14.3398 67.5608 14.9608 67.573 15.0975C67.5758 15.1293 67.5183 15.2154 67.4452 15.2888C67.3721 15.3621 67.3165 15.4693 67.3216 15.527C67.3268 15.5847 67.242 15.6872 67.1332 15.755C67.0245 15.8227 66.9221 15.9605 66.9057 16.0612C66.8894 16.1619 66.8453 16.2469 66.8077 16.2501C66.7702 16.2533 66.7549 16.2034 66.7736 16.1391C66.7924 16.0748 66.7706 16.0038 66.7251 15.9813C66.6678 15.9529 66.6554 15.8467 66.6845 15.6339C66.7076 15.4653 66.7009 15.2547 66.6697 15.1659C66.6384 15.0771 66.638 14.8652 66.6687 14.6951C66.7073 14.4817 66.7001 14.3735 66.6455 14.3465C66.6021 14.325 66.5643 14.2287 66.5618 14.1325C66.5515 13.7463 66.4941 13.5802 66.3607 13.5508C66.2856 13.5344 66.1851 13.4527 66.1372 13.3695C66.0661 13.2458 65.9953 13.2243 65.7498 13.2519C65.5845 13.2705 65.3735 13.3287 65.2809 13.3812C65.1883 13.4338 65.0358 13.5204 64.9421 13.5737C64.8459 13.6283 64.7463 13.7766 64.7134 13.9138C64.6813 14.0476 64.6265 14.1594 64.5916 14.1624C64.5567 14.1654 64.5044 14.3061 64.4754 14.475C64.3969 14.9325 64.3037 15.2859 64.2488 15.334C64.1814 15.393 64.0323 15.9804 64.0458 16.1331C64.052 16.2018 64.014 16.2785 63.9616 16.3037C63.9092 16.3288 63.8303 16.5794 63.7862 16.8604C63.7421 17.1415 63.6798 17.3737 63.6478 17.3764C63.6157 17.3792 63.5496 17.5531 63.5008 17.7629C63.452 17.9726 63.3762 18.1794 63.3322 18.2224C63.2882 18.2653 63.2232 18.4545 63.1878 18.6428C63.1523 18.8311 63.0836 19.0239 63.0351 19.0711C62.9865 19.1182 62.92 19.2688 62.8873 19.4055C62.8545 19.5423 62.801 19.6565 62.7684 19.6593C62.7359 19.6621 62.6839 19.7627 62.653 19.8828C62.622 20.0029 62.5661 20.1039 62.5289 20.1071C62.4916 20.1103 62.4481 20.1924 62.4324 20.2896C62.4166 20.3868 62.2741 20.6203 62.1158 20.8087C61.9574 20.997 61.8124 21.2194 61.7933 21.303C61.7743 21.3865 61.732 21.4572 61.6991 21.4601C61.6451 21.4647 61.378 21.7096 61.0994 22.01C60.8494 22.2797 60.4087 22.5679 60.2218 22.584C60.1112 22.5935 59.9606 22.6482 59.8872 22.7056C59.8138 22.763 59.7049 22.8111 59.6453 22.8124C59.4258 22.8176 58.9105 22.6893 58.9051 22.6281C58.902 22.5934 58.8333 22.5504 58.7523 22.5326C58.6713 22.5147 58.5611 22.4656 58.5073 22.4233C58.4535 22.381 58.3203 22.3006 58.2112 22.2445C58.0342 22.1535 57.9147 22.0057 57.5173 21.3869C57.3829 21.1776 57.1203 20.2351 57.0732 19.7933C57.0547 19.6187 57.0721 19.2384 57.1119 18.9483C57.1877 18.3977 57.2738 18.2758 57.6424 18.1976C57.8887 18.1454 58.5118 17.8864 58.5499 17.8203C58.5955 17.7414 59.8268 17.1356 59.966 17.1236C60.031 17.118 60.0968 17.0697 60.1124 17.0161C60.128 16.9625 60.1798 16.9151 60.2274 16.9107C60.2751 16.9063 60.483 16.7743 60.6894 16.6175C60.8959 16.4606 61.1811 16.2896 61.3231 16.2375C61.4652 16.1855 61.6703 16.0683 61.7791 15.9772C61.8877 15.886 62.0136 15.8083 62.0587 15.8044C62.1488 15.7966 62.4629 15.4266 62.455 15.3375C62.4523 15.3069 62.5208 15.2532 62.6072 15.2181C62.6937 15.183 62.8289 15.0731 62.9078 14.9738C62.9866 14.8745 63.0732 14.7915 63.1 14.7892C63.1676 14.7834 63.3914 14.4721 63.3844 14.3936C63.3813 14.3584 63.4095 14.3448 63.4471 14.3634C63.4847 14.3821 63.5408 14.299 63.5717 14.1789C63.6027 14.0588 63.6587 13.9579 63.6963 13.9547C63.734 13.9514 63.7886 13.792 63.8176 13.6003C63.8601 13.32 63.8419 13.1652 63.7243 12.8093C63.6438 12.5659 63.5451 12.359 63.5049 12.3496C63.4646 12.3401 63.3535 12.2767 63.2581 12.2086C63.1626 12.1406 63.0602 12.087 63.0305 12.0896C63.0007 12.0922 62.9884 12.0244 63.0032 11.9391C63.0269 11.8015 63.0088 11.7911 62.8435 11.8474C62.7398 11.8826 62.6543 11.8811 62.651 11.8439C62.6443 11.769 62.0912 11.6962 61.4645 11.6878C61.1691 11.6839 61.0071 11.7154 60.8953 11.7986C60.8094 11.8626 60.6818 11.9103 60.6118 11.9046C60.5418 11.8988 60.4705 11.9216 60.4533 11.955C60.4362 11.9885 60.3598 12.0054 60.2836 11.9927C60.2074 11.9799 60.1264 12.0059 60.1036 12.0505C60.0808 12.095 60.001 12.1367 59.9263 12.1431C59.8515 12.1495 59.7637 12.2131 59.7311 12.2845C59.6984 12.3559 59.6557 12.3996 59.6361 12.3817C59.5842 12.3344 59.0368 12.7148 59.0438 12.7932C59.047 12.8296 58.9689 12.8663 58.8701 12.8748C58.7583 12.8844 58.6941 12.9303 58.6999 12.9962C58.7051 13.0545 58.677 13.105 58.6375 13.1084C58.5582 13.1152 58.3183 13.3534 58.0127 13.7288C57.9448 13.8122 57.8624 13.8673 57.8297 13.8512C57.7971 13.835 57.7552 13.8886 57.7366 13.9703C57.718 14.052 57.5731 14.28 57.4145 14.4771C57.2559 14.674 57.1129 14.8936 57.0967 14.965C57.0804 15.0363 57.0392 15.0971 57.005 15.1C56.9708 15.103 56.9279 15.1713 56.9096 15.2517C56.8913 15.3322 56.8472 15.3835 56.8115 15.3659C56.7758 15.3482 56.7306 15.4077 56.7109 15.4981C56.6912 15.5885 56.6274 15.7211 56.5691 15.7927C56.5107 15.8644 56.4257 15.9759 56.3801 16.0404C56.2741 16.1905 56.0184 16.2148 56.006 16.076C56.0009 16.0177 55.94 15.9743 55.8708 15.9795C55.8016 15.9847 55.513 15.8974 55.2296 15.7855C54.9461 15.6736 54.6444 15.588 54.5592 15.5953C54.474 15.6026 54.3355 15.5696 54.2516 15.5219C54.0319 15.3971 53.4868 15.3114 53.1601 15.3504C53.0028 15.3691 52.7932 15.3386 52.6846 15.2813C52.5543 15.2124 52.3003 15.1878 51.9126 15.2063C50.6163 15.2684 50.3127 15.2667 50.1448 15.1961C50.0405 15.1522 49.8791 15.149 49.7479 15.1881C49.6264 15.2243 49.2855 15.2873 48.9906 15.3281C48.6956 15.3688 48.4386 15.4088 48.4194 15.4168C48.3462 15.4476 47.8358 15.4119 47.6665 15.3642C47.4492 15.3029 47.548 15.1559 47.8698 15.0619C48.0677 15.0041 49.0639 14.4821 49.096 14.4194C49.1145 14.3833 49.1821 14.3492 49.2464 14.3437C49.3106 14.3382 49.4983 14.2542 49.6636 14.1573C49.8289 14.0602 49.9827 13.9962 50.0056 14.0151C50.0284 14.0339 50.1036 13.9831 50.1727 13.9021C50.2418 13.821 50.3675 13.7488 50.4521 13.7415C50.5366 13.7343 50.6381 13.6757 50.6777 13.6113C50.7173 13.547 50.7966 13.4832 50.854 13.4696C50.9114 13.4559 50.9965 13.4165 51.0431 13.382C51.0896 13.3476 51.192 13.3013 51.2707 13.2793C51.3493 13.2572 51.5011 13.1659 51.6079 13.0763C51.7147 12.9867 51.8357 12.9105 51.8767 12.907C51.9858 12.8976 52.4369 12.5696 52.431 12.504C52.4263 12.4503 52.6701 12.3429 52.8079 12.3379C52.844 12.3366 52.8981 12.2818 52.9282 12.2162C52.9582 12.1505 53.0148 12.1126 53.0538 12.132C53.093 12.1513 53.1219 12.1335 53.1183 12.0923C53.1146 12.0512 53.1601 12.0133 53.2194 12.0082C53.2786 12.0031 53.3241 11.9653 53.3205 11.9241C53.3168 11.883 53.3427 11.8636 53.3781 11.8811C53.4134 11.8986 53.5049 11.8445 53.5815 11.761C53.6581 11.6774 53.7521 11.6064 53.7904 11.6031C53.8287 11.5998 53.8992 11.5522 53.9469 11.4972C53.9946 11.4423 54.1857 11.2755 54.3715 11.1267C54.5573 10.9778 54.7179 10.8293 54.7282 10.7967C54.7386 10.7642 54.7805 10.7347 54.8213 10.7312C54.8621 10.7277 55.0053 10.5881 55.1394 10.4209C55.2735 10.2537 55.4026 10.1329 55.4262 10.1523C55.4498 10.1718 55.4846 10.12 55.5034 10.0371C55.5222 9.95419 55.5606 9.88439 55.5887 9.88197C55.665 9.87541 56.0135 9.47654 56.1634 9.2242C56.2358 9.1022 56.3244 8.87977 56.3603 8.72979C56.3961 8.5799 56.4518 8.45492 56.4841 8.45215C56.6053 8.44171 56.6057 8.20131 56.4853 7.71691C56.3566 7.19869 56.1591 6.84252 56.0079 6.85554C55.9599 6.85967 55.9039 6.79236 55.8835 6.70604C55.8544 6.58295 55.7424 6.52174 55.3647 6.42267C55.0997 6.3532 54.716 6.25108 54.5121 6.19579C54.3081 6.14051 54.0188 6.10474 53.8691 6.11634C53.7194 6.12794 53.513 6.09301 53.4103 6.03884C53.3003 5.98073 53.156 5.96324 53.0591 5.99622C52.9686 6.02708 52.7814 6.03023 52.643 6.00326C52.3177 5.9399 50.9685 6.00018 50.8555 6.08309ZM80.7815 5.7184C80.7848 5.75599 80.743 5.77425 80.6887 5.75892C80.6343 5.7436 80.4499 5.77747 80.2792 5.83424C80.1083 5.89095 79.8918 5.96063 79.7982 5.98898C79.6294 6.04011 79.037 6.34953 78.6628 6.58215C78.556 6.64852 78.436 6.70562 78.3962 6.70905C78.3563 6.71248 78.197 6.86823 78.042 7.05522C77.8871 7.2422 77.7394 7.37794 77.7139 7.35693C77.6884 7.33585 77.656 7.42079 77.6419 7.54575C77.6279 7.6707 77.5719 7.77676 77.5176 7.78143C77.4633 7.78611 77.4215 7.81947 77.4247 7.85557C77.4279 7.89161 77.3917 7.96685 77.3444 8.02268C76.9222 8.51981 76.6579 10.0197 76.7734 11.263C76.8582 12.1755 76.9666 12.8599 77.0537 13.0333C77.0858 13.0972 77.0942 13.1846 77.0722 13.2275C77.0502 13.2704 77.07 13.3023 77.1161 13.2983C77.1697 13.2937 77.1894 13.3563 77.1706 13.4716C77.1522 13.5848 77.1717 13.6495 77.2229 13.6451C77.269 13.6412 77.2936 13.7008 77.2794 13.7826C77.2657 13.862 77.2838 13.9416 77.3197 13.9594C77.3556 13.9772 77.4398 14.1782 77.5068 14.4062C77.5739 14.6341 77.6529 14.8185 77.6825 14.816C77.7406 14.811 78.043 15.6213 78.0618 15.8323C78.0681 15.9032 78.021 16.0157 77.9573 16.0826C77.8936 16.1494 77.7995 16.2814 77.7482 16.3758C77.6968 16.4702 77.5969 16.6283 77.5261 16.7271C77.4552 16.8259 77.3176 17.0174 77.2203 17.1527C76.8305 17.6942 76.786 17.7659 76.7928 17.8424C76.7967 17.886 76.7481 17.9804 76.6848 18.0519C76.4163 18.3552 76.3423 18.4744 76.3524 18.5876C76.3583 18.6536 76.3191 18.7286 76.2652 18.7545C76.2114 18.7803 76.1543 18.8817 76.1383 18.9796C76.1224 19.0777 76.0763 19.1415 76.0359 19.1215C75.9954 19.1015 75.9668 19.1347 75.9721 19.1953C75.9775 19.2558 75.9264 19.3706 75.8584 19.4502C75.7905 19.5299 75.7066 19.7133 75.6719 19.8579C75.6373 20.0025 75.5804 20.1232 75.5456 20.1262C75.5107 20.1292 75.4549 20.2611 75.4217 20.4193C75.3885 20.5775 75.3386 20.6958 75.311 20.6821C75.2833 20.6684 75.2154 20.8435 75.16 21.0712C75.1047 21.2989 75.0339 21.5063 75.0028 21.5321C74.8973 21.6196 74.703 22.8638 74.7643 23.0592C74.7972 23.164 74.8499 23.2476 74.8813 23.2449C74.9127 23.2422 74.9663 23.3337 75.0004 23.4483C75.0401 23.5814 75.1063 23.6527 75.1842 23.646C75.2512 23.6403 75.361 23.6743 75.428 23.7218C75.7044 23.9172 76.0093 23.9283 76.6146 23.7651C76.9349 23.6787 77.3004 23.5806 77.4269 23.547C77.5533 23.5133 77.6542 23.4582 77.6512 23.4244C77.6482 23.3907 77.6704 23.3659 77.7006 23.3694C77.7814 23.3789 78.5307 22.9489 78.5544 22.8796C78.5655 22.847 78.7133 22.7312 78.8828 22.6223C79.0523 22.5135 79.3912 22.2956 79.636 22.1382C79.8807 21.9808 80.2012 21.7764 80.3482 21.684C80.4951 21.5916 80.7006 21.4182 80.8049 21.2986C80.9093 21.1791 81.036 21.0777 81.0864 21.0734C81.1368 21.0691 81.2431 20.9946 81.3225 20.9079C81.4019 20.8213 81.4697 20.7753 81.473 20.806C81.4763 20.8366 81.5015 20.819 81.5289 20.767C81.5563 20.715 81.6786 20.6347 81.8007 20.5887C81.9997 20.5135 82.051 20.5276 82.2976 20.7252C82.4489 20.8464 82.6206 20.9414 82.6791 20.9363C82.7377 20.9313 82.7881 20.9559 82.7912 20.9909C82.8067 21.1645 83.5713 21.2061 83.819 21.0469C83.9155 20.985 83.9849 20.9788 84.0543 21.0261C84.1851 21.1151 84.2621 21.0174 84.1495 20.9054C84.0817 20.8379 84.0882 20.8151 84.1776 20.8074C84.2417 20.8019 84.2897 20.7481 84.2844 20.688C84.2742 20.5732 83.9009 20.2684 83.777 20.2736C83.687 20.2775 83.0465 19.792 83.0397 19.7147C83.0342 19.6528 83.3598 19.347 83.4384 19.3402C83.465 19.3379 83.5312 19.2842 83.5853 19.2208C83.6395 19.1574 83.8051 19.031 83.9533 18.9399C84.1015 18.8489 84.2314 18.7495 84.242 18.7193C84.2526 18.689 84.307 18.6603 84.363 18.6555C84.4189 18.6507 84.4618 18.613 84.4581 18.5719C84.4545 18.5308 84.4855 18.5139 84.5272 18.5345C84.5688 18.5552 84.6002 18.542 84.597 18.5053C84.5937 18.4686 84.802 18.2871 85.0599 18.1018C85.4703 17.807 85.5346 17.729 85.5767 17.4749C85.6119 17.2618 85.602 17.1801 85.5391 17.1672C85.2153 17.1005 85.0239 17.115 84.7936 17.2233C84.6487 17.2916 84.4422 17.3745 84.3347 17.4077C84.2271 17.4408 84.0856 17.5278 84.02 17.601C83.8997 17.7354 83.8059 17.7815 83.5774 17.8183C83.5083 17.8295 83.4385 17.8975 83.4221 17.9696C83.4027 18.055 83.248 18.1536 82.9769 18.2536C82.7483 18.3377 82.5638 18.4332 82.5667 18.4657C82.5695 18.4982 82.5234 18.529 82.4642 18.5341C82.4049 18.5392 82.3592 18.5745 82.3626 18.6127C82.366 18.6507 82.2903 18.7087 82.1944 18.7413C82.0499 18.7905 81.9589 18.7468 81.6629 18.4858C81.4665 18.3126 81.2807 18.1011 81.25 18.0156C81.2193 17.9301 81.172 17.8621 81.1448 17.8644C81.1177 17.8667 80.9693 17.6712 80.8152 17.43C80.661 17.1887 80.5102 16.9934 80.48 16.996C80.4499 16.9986 80.3979 16.923 80.3645 16.828C80.3311 16.7329 80.2746 16.6577 80.2389 16.6608C80.2034 16.6638 80.1444 16.5728 80.108 16.4584C80.0716 16.3441 80.0161 16.2527 79.9847 16.2554C79.9533 16.2582 79.8978 16.1603 79.8614 16.0381C79.8135 15.877 79.8238 15.7968 79.8988 15.7466C79.9558 15.7084 79.9997 15.6472 79.9964 15.6104C79.9931 15.5737 80.1371 15.3627 80.3162 15.1415C80.4954 14.9203 80.6861 14.6847 80.7401 14.6181C80.7942 14.5514 80.8343 14.4507 80.8293 14.3944C80.8242 14.338 80.9121 14.2272 81.0245 14.1481C81.1369 14.069 81.2262 13.9743 81.2229 13.9377C81.2197 13.9011 81.2684 13.8078 81.3312 13.7306C81.394 13.6533 81.4873 13.5121 81.5386 13.4168C81.5898 13.3216 81.6839 13.1889 81.7476 13.1221C81.8113 13.0552 81.8598 12.96 81.8554 12.9103C81.851 12.8606 81.8814 12.8171 81.923 12.8135C81.9646 12.8099 82.0243 12.707 82.0558 12.5848C82.0873 12.4627 82.1338 12.3798 82.1591 12.4007C82.201 12.4354 82.2658 12.3119 82.4905 11.7679C82.5325 11.6664 82.6056 11.5543 82.6531 11.5189C82.7005 11.4835 82.7354 11.41 82.7305 11.3556C82.7257 11.3012 82.7646 11.2274 82.817 11.1916C82.8693 11.1557 82.9488 10.9489 82.9935 10.7319C83.0382 10.5149 83.1072 10.3135 83.1468 10.2845C83.2596 10.2018 83.3996 9.21918 83.3857 8.60835C83.3788 8.304 83.3884 8.02514 83.4071 7.98865C83.4257 7.95223 83.4058 7.90496 83.3628 7.88366C83.3197 7.86237 83.298 7.81868 83.3145 7.78658C83.4084 7.60284 83.0224 6.6214 82.7977 6.4727C82.7715 6.45538 82.7227 6.36175 82.6892 6.26467C82.6401 6.12208 82.5572 6.07652 82.2589 6.02808C81.9689 5.98098 81.8867 5.93749 81.8768 5.82578C81.8682 5.72926 81.8311 5.69928 81.7617 5.73252C81.7053 5.75959 81.5008 5.74892 81.3072 5.70884C80.8925 5.62305 80.7732 5.6252 80.7815 5.7184ZM81.1371 6.79152C81.3107 6.81041 81.4041 6.88254 81.5376 7.1006C81.7951 7.52087 81.9824 8.3054 81.9147 8.68017C81.8848 8.84622 81.8751 9.03815 81.8932 9.10672C81.9114 9.17529 81.8945 9.27906 81.8557 9.33736C81.8169 9.39567 81.7604 9.60217 81.7301 9.79616C81.6999 9.99021 81.6089 10.3021 81.528 10.4894C81.4471 10.6766 81.3842 10.8676 81.3883 10.9137C81.3924 10.9598 81.3591 11.043 81.3143 11.0986C81.2695 11.1542 81.1486 11.3511 81.0458 11.5362C80.9429 11.7213 80.8438 11.89 80.8256 11.9111C80.8073 11.9323 80.7112 12.0927 80.612 12.2677C80.5127 12.4427 80.4036 12.5882 80.3695 12.5912C80.3354 12.5941 80.3115 12.6427 80.3165 12.699C80.3216 12.7554 80.2874 12.8304 80.2407 12.8657C80.1939 12.901 80.0713 13.0794 79.9683 13.262C79.6858 13.7625 79.1803 14.3537 79.0632 14.3207C78.8588 14.263 78.2157 12.0316 78.2636 11.5458C78.2802 11.377 78.2656 11.215 78.231 11.1855C78.1965 11.1562 78.186 11.0029 78.2076 10.8448C78.2292 10.6868 78.2249 10.5285 78.198 10.493C78.1238 10.3953 78.2847 9.28288 78.391 9.15832C78.4422 9.09831 78.5062 8.93082 78.5334 8.78602C78.5671 8.60583 78.7516 8.32523 79.1178 7.89707C79.7239 7.18839 80.0353 6.93604 80.3707 6.88168C80.4985 6.861 80.6172 6.81647 80.6344 6.78281C80.6517 6.74914 80.7209 6.73172 80.7883 6.74422C80.8557 6.75664 81.0127 6.77795 81.1371 6.79152ZM97.1098 5.53203C97.0894 5.61602 96.3101 5.71197 95.4244 5.73956C95.2563 5.74477 95.0807 5.78494 95.0342 5.82881C94.9405 5.91719 94.6473 5.99952 93.8501 6.16117C93.1297 6.30725 92.8574 6.39348 92.8645 6.47318C92.8678 6.50992 92.8387 6.52424 92.7999 6.50508C92.7612 6.48585 92.7117 6.50477 92.6901 6.54707C92.6685 6.58937 92.6202 6.60884 92.5828 6.59033C92.4845 6.54162 91.7292 6.84307 91.6154 6.97646C91.5519 7.05092 91.4369 7.08374 91.2798 7.07234C91.0847 7.05815 91.0346 7.08197 91.0074 7.20179C90.9839 7.3052 90.9304 7.34127 90.8264 7.32388C90.6636 7.29659 90.2052 7.52771 90.126 7.67699C90.0983 7.72914 90.0435 7.75586 90.0041 7.73639C89.9648 7.71685 89.8447 7.77461 89.7374 7.86465C89.63 7.9547 89.4925 8.0326 89.4318 8.03783C89.3711 8.04305 89.3043 8.08084 89.2833 8.1218C89.2623 8.16277 89.1814 8.20177 89.1035 8.20847C89.0256 8.21518 88.9483 8.26697 88.9318 8.32364C88.9041 8.4188 88.5984 8.5754 88.4717 8.55932C88.4415 8.55551 88.4193 8.58034 88.4223 8.61447C88.4291 8.69128 87.9076 9.3291 87.8981 9.25566C87.8943 9.22658 87.864 9.25952 87.8307 9.32888C87.7425 9.51291 87.6941 10.1097 87.7678 10.1034C87.8022 10.1004 87.8343 10.1423 87.8391 10.1964C87.844 10.2506 87.9014 10.3099 87.9666 10.3284C88.1314 10.3748 88.9916 10.1327 88.9836 10.0421C88.976 9.95628 89.2593 9.65807 89.5297 9.46749C89.6327 9.39483 89.7147 9.31045 89.712 9.27992C89.7093 9.24947 89.7556 9.22035 89.8149 9.21525C89.8741 9.21015 89.9193 9.16888 89.9153 9.12352C89.9113 9.07823 89.9304 9.05957 89.9577 9.08221C89.9851 9.10477 90.0869 9.05913 90.1839 8.98072C90.281 8.90231 90.4944 8.78747 90.658 8.72554C90.8217 8.66362 90.9529 8.58248 90.9496 8.54517C90.9463 8.50786 91.0304 8.46987 91.1364 8.46074C91.2425 8.45162 91.4595 8.36772 91.6186 8.27429C91.7778 8.18085 91.9783 8.08471 92.0642 8.06059C92.15 8.03654 92.2551 7.98741 92.2976 7.95143C92.3401 7.91545 92.471 7.86766 92.5884 7.84524C92.7058 7.82282 92.82 7.76949 92.842 7.72673C92.864 7.68396 92.9345 7.66373 92.9986 7.68186C93.0626 7.69991 93.1314 7.6826 93.1515 7.64342C93.1715 7.60425 93.2811 7.5642 93.395 7.55441C93.5088 7.54461 93.6168 7.50747 93.6351 7.47194C93.6533 7.43634 93.8609 7.36885 94.0965 7.32188C94.3321 7.27491 94.5226 7.21159 94.5199 7.18114C94.5172 7.15069 94.5553 7.12085 94.6045 7.11491C94.7682 7.09513 95.5457 6.93268 95.6527 6.89591C95.8152 6.84013 97.0956 6.63904 97.2589 6.64364C97.3388 6.64595 97.599 6.64179 97.8372 6.63453C98.0754 6.62728 98.4026 6.64391 98.5643 6.67157C98.7261 6.69931 98.9571 6.73333 99.0778 6.74722C99.5084 6.79682 99.6212 6.87995 99.73 7.22765C99.8561 7.63048 99.7937 7.94478 99.525 8.2606C99.4234 8.38005 99.343 8.509 99.3464 8.54716C99.3498 8.58532 99.3195 8.60017 99.2791 8.58015C99.2386 8.56014 99.1922 8.62636 99.1758 8.72724C99.1593 8.82819 99.1233 8.91267 99.0958 8.91504C99.0682 8.91742 98.9032 9.07465 98.7293 9.26448C98.5553 9.45425 98.3487 9.63585 98.2702 9.66802C98.1917 9.70013 97.9571 9.92566 97.7487 10.1691C97.5404 10.4125 97.2858 10.6403 97.1828 10.6754C97.0798 10.7104 96.9319 10.8086 96.8541 10.8935C96.7762 10.9785 96.6407 11.0725 96.5531 11.1023C96.4653 11.1321 96.3958 11.1813 96.3984 11.2115C96.4011 11.2417 96.1809 11.4214 95.9092 11.6108C95.6374 11.8002 95.3849 11.9989 95.3481 12.0523C95.3114 12.1057 95.219 12.1657 95.1428 12.1857C95.0667 12.2055 94.9711 12.2568 94.9305 12.2994C94.6715 12.5711 94.507 12.7064 94.2799 12.8349C94.1382 12.9149 94.0246 13.006 94.0274 13.0372C94.0301 13.0685 93.969 13.1042 93.8915 13.1167C93.7536 13.139 93.6732 13.2001 93.4041 13.4875C93.3298 13.5669 93.2083 13.6198 93.1304 13.6068C93.0532 13.5939 92.9927 13.6121 92.9958 13.6474C92.999 13.6826 92.9753 13.7136 92.9432 13.7164C92.9112 13.7192 92.8767 13.5059 92.8667 13.2424C92.7778 10.913 92.7262 10.1039 92.6668 10.109C92.6371 10.1116 92.6231 10.0224 92.6356 9.91101C92.6484 9.79691 92.5983 9.59553 92.521 9.45046C92.4453 9.30873 92.3983 9.16376 92.4165 9.12831C92.4345 9.09293 92.3573 9.05045 92.2447 9.03401C92.1321 9.01757 91.9969 8.9763 91.944 8.94233C91.8913 8.90828 91.8499 8.90137 91.8522 8.92695C91.8545 8.95246 91.7893 8.94525 91.7075 8.91078C91.4786 8.81449 91.2217 8.93535 91.1836 9.15707C91.1654 9.26287 91.2075 10.1296 91.2771 11.083C91.3467 12.0364 91.4048 13.0167 91.4061 13.2613C91.4075 13.5059 91.4118 13.8972 91.4156 14.1309C91.4253 14.7177 91.3895 14.8263 91.1671 14.8833C90.8253 14.9708 90.7655 15.005 90.6896 15.1563C90.6485 15.2382 90.6116 15.2806 90.6075 15.2507C90.6035 15.2208 90.5256 15.2541 90.4344 15.3247C90.3433 15.3954 90.2486 15.4495 90.2241 15.4449C90.1995 15.4404 90.0151 15.555 89.8144 15.6996C89.5081 15.9203 89.4415 16.0101 89.4002 16.2579C89.3692 16.4443 89.3773 16.5596 89.4223 16.5707C89.4614 16.5804 89.4985 16.6456 89.5047 16.7155C89.515 16.8313 89.7566 16.9413 89.9116 16.9007C89.9464 16.8917 90.0784 16.9114 90.205 16.9447C90.5806 17.0433 91.1923 17.0573 91.2164 16.9678C91.2592 16.8088 91.3566 16.9882 91.3872 17.2826C91.4287 17.6804 91.432 18.7596 91.3921 18.8376C91.333 18.9532 91.4024 20.0551 91.4786 20.2101C91.5459 20.347 91.6046 20.3612 91.9738 20.33C92.4273 20.2917 92.6377 20.2012 92.6243 20.0501C92.6196 19.9973 92.6578 19.934 92.7091 19.9094C92.8039 19.8639 92.928 19.0876 92.8556 18.9921C92.8338 18.9634 92.8352 18.7666 92.8588 18.5549C92.8823 18.3432 92.8832 17.8388 92.8607 17.4341C92.8331 16.9379 92.8479 16.6775 92.9061 16.6349C92.9536 16.6 93.3013 16.5399 93.6789 16.5011C94.7317 16.3932 95.0021 16.3511 95.099 16.28C95.1897 16.2134 95.6734 16.1712 97.7336 16.05C99.1655 15.9657 99.0213 15.9689 99.5397 16.0101C99.7802 16.0293 100.042 16.048 100.122 16.0518C100.202 16.0556 100.418 16.0973 100.601 16.1446C100.785 16.192 101.016 16.2241 101.116 16.2161C101.215 16.2081 101.422 16.2708 101.577 16.3555C101.73 16.4401 101.9 16.5057 101.952 16.5012C102.005 16.4966 102.109 16.5518 102.183 16.6237C102.258 16.6956 102.377 16.7494 102.448 16.7433C102.595 16.7306 103.157 17.2057 103.17 17.354C103.175 17.4078 103.214 17.4601 103.257 17.4702C103.354 17.493 103.265 17.8422 103.12 18.0132C103.066 18.0764 103.027 18.1904 103.034 18.2666C103.041 18.3428 103.001 18.4266 102.946 18.453C102.891 18.4794 102.834 18.595 102.819 18.7101C102.804 18.8252 102.761 18.9414 102.724 18.9684C102.688 18.9954 102.637 19.0887 102.612 19.1758C102.569 19.324 102.074 19.6794 101.805 19.7548C101.739 19.7733 101.686 19.7933 101.686 19.7992C101.689 19.8302 101.376 19.9145 101.156 19.9419C101.018 19.9591 100.883 20.0152 100.856 20.0665C100.829 20.1177 100.746 20.1649 100.672 20.1713C100.598 20.1776 100.351 20.2474 100.123 20.3262C99.895 20.4051 99.518 20.4992 99.2853 20.5354C99.0526 20.5716 98.8626 20.6053 98.863 20.6103C98.8635 20.6153 98.6904 20.6482 98.4784 20.6833C98.2664 20.7184 98.0237 20.8009 97.9389 20.8666C97.8496 20.9357 97.6238 20.9989 97.4023 21.0167C96.5924 21.0818 95.4033 21.3429 95.2536 21.4886C95.2081 21.5329 95.1478 21.5499 95.1196 21.5266C95.0913 21.5033 95.0716 21.523 95.0758 21.5705C95.0808 21.6268 95.0014 21.6537 94.8474 21.6477C94.7176 21.6426 94.5022 21.6931 94.3688 21.7599C94.2354 21.8267 94.1181 21.8803 94.108 21.8791C94.0979 21.8779 94.0658 21.8826 94.0365 21.8896C94.0073 21.8966 93.9263 21.9016 93.8566 21.9006C93.7868 21.8997 93.7331 21.9367 93.7372 21.9828C93.7422 22.0388 93.67 22.0587 93.5202 22.0424C93.382 22.0273 93.2199 22.0652 93.0983 22.141C92.9896 22.2086 92.8006 22.2726 92.6781 22.2831C92.4248 22.3049 92.0811 22.497 92.0394 22.64C92.024 22.6929 91.9083 22.7528 91.7823 22.7732C91.6563 22.7937 91.4559 22.8727 91.3371 22.9488C91.2182 23.0249 91.0962 23.0828 91.0658 23.0773C91.0354 23.0719 91.013 23.0943 91.016 23.1272C91.0189 23.1602 90.9651 23.2633 90.8964 23.3566C90.76 23.5417 90.6425 24.2382 90.7379 24.2958C90.7706 24.3156 90.8383 24.3923 90.8882 24.4663C91.0297 24.6758 91.4524 24.7958 92.2068 24.8407C92.6912 24.8696 93.0014 24.8534 93.2396 24.787C93.4268 24.7347 93.9082 24.6512 94.3093 24.6013C94.7103 24.5515 95.1066 24.467 95.1898 24.4134C95.342 24.3157 95.496 24.2782 96.2814 24.1478C96.5165 24.1087 96.7169 24.043 96.727 24.0018C96.737 23.9605 96.8214 23.9202 96.9145 23.9122C97.0077 23.9042 97.101 23.8641 97.122 23.8231C97.143 23.7822 97.2228 23.7432 97.2995 23.7366C97.3763 23.73 97.4366 23.6981 97.4337 23.6658C97.4308 23.6334 97.4685 23.599 97.5174 23.5894C97.5664 23.5798 97.7461 23.5473 97.9169 23.5172C98.0877 23.4871 98.2454 23.4288 98.2673 23.3878C98.3178 23.2932 98.5247 23.1999 98.9915 23.0613C99.1375 23.0179 99.2832 22.9277 99.3154 22.8609C99.3474 22.794 99.3772 22.7671 99.3814 22.8008C99.3856 22.8346 99.4335 22.819 99.4878 22.7662C99.5421 22.7134 99.707 22.6442 99.8541 22.6124C100.001 22.5806 100.271 22.4467 100.453 22.3149C100.635 22.1831 100.83 22.0882 100.886 22.1041C100.943 22.1201 100.986 22.1023 100.983 22.0647C100.98 22.027 101.05 21.9893 101.138 21.9808C101.227 21.9723 101.375 21.8962 101.467 21.8116C101.559 21.7271 101.691 21.6524 101.76 21.6456C101.829 21.6388 101.883 21.6014 101.879 21.5626C101.876 21.5237 101.922 21.4877 101.981 21.4827C102.04 21.4776 102.086 21.4445 102.083 21.4094C102.08 21.3742 102.212 21.2866 102.378 21.2149C102.676 21.0852 102.679 21.0855 102.778 21.2627C102.935 21.5431 103.303 21.8403 103.54 21.8784C103.659 21.8976 103.95 21.9093 104.186 21.9045C104.422 21.8996 104.646 21.9212 104.684 21.9524C104.753 22.0095 105.249 21.8524 105.341 21.7441C105.367 21.7131 105.468 21.681 105.563 21.6728C105.659 21.6645 105.819 21.5909 105.917 21.5093C106.015 21.4276 106.175 21.3316 106.271 21.296C106.586 21.1791 106.893 20.9585 106.923 20.8264C106.939 20.7551 106.978 20.7097 107.01 20.7253C107.095 20.7678 107.55 20.3886 107.948 19.9434C108.687 19.1155 108.935 18.8458 109.234 18.5445C109.404 18.3733 109.558 18.1726 109.576 18.0987C109.616 17.9309 109.832 17.6725 109.89 17.721C109.914 17.7408 109.952 17.6949 109.973 17.6189C110.015 17.4734 110.179 17.2946 110.283 17.2818C110.317 17.2776 110.334 17.3886 110.319 17.5284C110.294 17.7801 110.286 18.6395 110.307 18.8438C110.37 19.4642 110.445 19.8939 110.583 20.4191C110.948 21.8138 111.201 22.2499 111.834 22.5782C111.95 22.6384 112.029 22.7197 112.009 22.7588C111.989 22.798 112.037 22.8245 112.116 22.8177C112.195 22.8109 112.283 22.8359 112.311 22.8732C112.34 22.9106 112.399 22.9145 112.443 22.8818C112.487 22.8491 112.587 22.8069 112.665 22.7881C112.743 22.7692 113.018 22.6246 113.276 22.4665C113.533 22.3085 113.789 22.1753 113.844 22.1706C113.899 22.1659 113.971 22.0979 114.005 22.0195C114.125 21.7437 114.488 19.0841 114.466 18.6422C114.433 17.9768 114.559 17.9205 115.113 18.355C115.209 18.431 115.43 18.5288 115.602 18.5723C115.775 18.6159 115.999 18.7252 116.101 18.8152C116.202 18.9053 116.358 19.0042 116.446 19.035C116.702 19.1242 116.963 19.25 117.016 19.3103C117.082 19.3843 117.607 19.5684 117.724 19.5584C117.775 19.554 118.102 19.7021 118.451 19.8874C118.801 20.0727 119.125 20.221 119.172 20.2169C119.22 20.2129 119.301 20.2521 119.354 20.3042C119.406 20.3563 119.604 20.4364 119.795 20.4822C120.17 20.5725 120.445 20.7453 120.672 21.0318C120.776 21.1637 120.876 21.2095 121.03 21.1963C121.148 21.1861 121.246 21.2017 121.249 21.2308C121.264 21.3949 121.736 21.7218 122.051 21.7861C122.457 21.8692 122.513 21.8596 122.675 21.6792C122.805 21.5332 122.746 21.1461 122.575 21.0278C122.524 20.9929 122.457 20.9102 122.424 20.8438C122.392 20.7775 122.278 20.6988 122.171 20.669C122.064 20.6392 121.955 20.5567 121.93 20.4859C121.884 20.3615 121.606 20.2223 121.428 20.2352C121.381 20.2387 121.197 20.1175 121.02 19.9659C120.688 19.6824 120.393 19.5423 120.168 19.5617C120.098 19.5677 119.993 19.502 119.936 19.4157C119.874 19.3224 119.684 19.2204 119.467 19.1641C119.266 19.1121 119.1 19.0409 119.097 19.0059C119.094 18.971 119.053 18.9456 119.007 18.9496C118.961 18.9536 118.868 18.9168 118.801 18.8677C118.606 18.7263 118.099 18.5186 118.06 18.5644C118.04 18.5875 117.918 18.5416 117.788 18.4625C117.658 18.3833 117.4 18.2648 117.215 18.199C116.929 18.0971 116.564 17.8972 116.172 17.628C116.121 17.5927 116.056 17.5659 116.028 17.5683C116 17.5707 115.922 17.5305 115.854 17.479C115.787 17.4276 115.6 17.2861 115.44 17.1647C115.28 17.0432 115.147 16.9133 115.143 16.876C115.14 16.8386 115.082 16.7706 115.015 16.7248C114.842 16.6073 114.897 16.2543 115.126 16.0095C115.227 15.9013 115.327 15.7536 115.348 15.6813C115.369 15.609 115.42 15.5667 115.462 15.5875C115.504 15.6083 115.536 15.5943 115.533 15.5565C115.525 15.4676 115.918 14.9922 116.146 14.8156C116.244 14.7403 116.319 14.6346 116.314 14.5807C116.31 14.5269 116.354 14.4787 116.413 14.4736C116.473 14.4685 116.518 14.4302 116.514 14.3885C116.507 14.3059 117.167 13.556 117.254 13.5475C117.284 13.5446 117.305 13.5025 117.301 13.4539C117.297 13.4053 117.427 13.2268 117.591 13.0574C117.755 12.8879 117.885 12.7085 117.881 12.6587C117.876 12.6088 117.921 12.5639 117.98 12.5588C118.04 12.5537 118.086 12.5222 118.083 12.4888C118.075 12.3988 118.512 11.8722 118.601 11.8646C118.644 11.8609 118.675 11.8214 118.671 11.7768C118.667 11.7321 118.759 11.5811 118.876 11.4411C118.993 11.3012 119.176 11.0629 119.282 10.9116C119.388 10.7604 119.526 10.58 119.59 10.5109C119.653 10.4417 119.703 10.3596 119.7 10.3283C119.697 10.2971 119.828 10.1159 119.99 9.92571C120.152 9.73554 120.283 9.55605 120.28 9.52687C120.274 9.45445 120.526 9.20698 120.614 9.19941C120.653 9.19605 120.681 9.14532 120.676 9.08661C120.67 9.02796 120.726 8.91994 120.799 8.84658C120.872 8.77322 120.929 8.67602 120.925 8.63051C120.92 8.58501 120.964 8.5253 121.021 8.4978C121.079 8.47037 121.122 8.40685 121.117 8.35668C121.113 8.30651 121.17 8.22019 121.245 8.16484C121.32 8.1095 121.377 8.02219 121.373 7.97082C121.368 7.91938 121.442 7.82728 121.537 7.76619C121.632 7.70502 121.722 7.57994 121.737 7.48816C121.752 7.39646 121.791 7.33471 121.824 7.35096C121.894 7.38566 121.956 7.20684 121.939 7.01804C121.927 6.8811 121.582 6.55294 121.461 6.56334C121.424 6.56658 121.388 6.51964 121.383 6.45908C121.377 6.38864 121.342 6.37157 121.288 6.41184C121.242 6.4464 121.171 6.48248 121.132 6.49195C120.77 6.58021 120 7.31181 119.697 7.85551C119.646 7.94815 119.464 8.19681 119.294 8.40811C119.124 8.61942 118.986 8.81422 118.989 8.84107C118.996 8.92339 118.724 9.25629 118.659 9.24443C118.626 9.23836 118.583 9.29853 118.565 9.37819C118.531 9.53105 118.197 9.98962 117.679 10.598C117.508 10.7989 117.37 10.987 117.373 11.0157C117.377 11.0699 117.24 11.2568 117.026 11.4865C116.958 11.5595 116.869 11.6639 116.829 11.7185C116.789 11.7731 116.617 11.9923 116.447 12.2055C116.277 12.4188 116.14 12.621 116.143 12.6549C116.146 12.6887 116.1 12.7206 116.041 12.7257C115.982 12.7308 115.937 12.7827 115.943 12.841C115.948 12.8992 115.924 12.9493 115.89 12.9523C115.802 12.9598 115.152 13.7205 115.16 13.8064C115.163 13.8454 115.134 13.8617 115.096 13.8425C115.057 13.8234 115.012 13.8655 114.996 13.9361C114.98 14.0067 114.906 14.1099 114.831 14.1656C114.703 14.2598 114.691 14.2486 114.657 14.0024C114.636 13.857 114.616 13.6582 114.612 13.5606C114.609 13.463 114.571 12.8495 114.529 12.1973C114.487 11.5451 114.472 10.9887 114.496 10.9608C114.52 10.9329 114.507 10.8778 114.468 10.8384C114.394 10.7629 114.442 10.2354 114.594 9.45553C114.678 9.02597 114.676 9.00352 114.54 8.89064C114.462 8.826 114.247 8.75038 114.062 8.72263C113.877 8.69489 113.675 8.65566 113.613 8.63557C113.333 8.54459 112.879 9.42778 113.026 9.776C113.056 9.84545 113.057 10.0602 113.03 10.2531C113.002 10.446 113.001 10.9865 113.027 11.4542C113.117 13.0657 113.15 14.0462 113.152 15.2526C113.153 15.5463 113.162 15.8569 113.172 15.9431C113.182 16.0291 113.155 16.4063 113.113 16.781C113.07 17.1558 113.056 17.5184 113.08 17.5869C113.105 17.6553 113.085 17.9897 113.036 18.3298C112.986 18.67 112.968 19.009 112.995 19.0831C113.022 19.1572 113.013 19.3156 112.975 19.4352C112.909 19.6461 112.896 19.7095 112.887 19.8752C112.885 19.9186 112.806 20.0528 112.71 20.1734C112.615 20.2941 112.513 20.5399 112.483 20.7196C112.453 20.8994 112.398 21.0442 112.36 21.0414C112.254 21.0335 112.057 20.5454 112.002 20.1518C111.974 19.9551 111.932 19.7666 111.908 19.7327C111.832 19.6266 111.712 17.5645 111.762 17.2235C111.788 17.045 111.782 16.8921 111.748 16.8836C111.714 16.8752 111.712 16.6599 111.743 16.4053C111.774 16.1507 111.78 15.9029 111.756 15.8545C111.732 15.8063 111.728 15.6136 111.747 15.4263C111.765 15.2391 111.76 15.0876 111.735 15.0898C111.71 15.092 111.668 14.9068 111.642 14.6783C111.589 14.2074 111.376 13.7943 111.163 13.7474C111.083 13.7299 110.903 13.6198 110.761 13.5027C110.545 13.3248 110.427 13.2872 110.038 13.2733C109.32 13.2477 108.652 13.3113 108.502 13.4197C108.427 13.4738 108.205 13.5408 108.009 13.5686C107.675 13.6159 107.264 13.804 107.22 13.9297C107.21 13.96 107.155 13.9887 107.099 13.9935C107.043 13.9983 107 14.0279 107.003 14.0593C107.006 14.0906 106.91 14.118 106.791 14.1202C106.672 14.1223 106.577 14.1527 106.58 14.1877C106.583 14.2227 106.54 14.2552 106.485 14.2599C106.43 14.2646 106.371 14.3178 106.353 14.3781C106.336 14.4383 106.262 14.4927 106.189 14.499C106.116 14.5053 105.993 14.58 105.915 14.665C105.837 14.75 105.744 14.8221 105.707 14.8253C105.671 14.8284 105.519 14.9696 105.37 15.1391C105.221 15.3085 105.051 15.4513 104.992 15.4564C104.932 15.4615 104.888 15.51 104.893 15.5641C104.897 15.6183 104.855 15.685 104.797 15.7125C104.74 15.74 104.696 15.8033 104.699 15.8532C104.703 15.903 104.58 16.0147 104.426 16.1012C104.193 16.232 104.113 16.247 103.95 16.1904C103.842 16.1528 103.705 16.0646 103.645 15.9943C103.585 15.924 103.49 15.8705 103.433 15.8754C103.376 15.8802 103.284 15.8241 103.228 15.7506C103.171 15.6771 103.075 15.6214 103.013 15.6267C102.951 15.6321 102.833 15.5951 102.751 15.5447C102.67 15.4942 102.554 15.4561 102.494 15.4601C102.434 15.4639 102.257 15.4134 102.101 15.3478C101.945 15.2821 101.629 15.2004 101.399 15.1662C101.168 15.1319 100.781 15.0692 100.538 15.0267C100.295 14.9843 100.008 14.9766 99.9001 15.0096C99.7919 15.0426 99.6565 15.0377 99.5991 14.9986C99.5418 14.9596 99.4676 14.9349 99.4343 14.9438C99.4011 14.9527 99.3574 14.9573 99.3372 14.954C99.317 14.9509 98.9918 14.9575 98.6146 14.9689C98.2374 14.9803 97.8305 14.9833 97.7104 14.9754C97.0334 14.9312 96.8744 14.9353 96.8799 14.997C96.8837 15.0392 96.7313 15.054 96.4717 15.0365C96.194 15.0178 95.9972 15.0395 95.8746 15.1022C95.774 15.1538 95.6069 15.1882 95.5031 15.1787C95.3993 15.1693 95.2994 15.1792 95.2809 15.2008C95.2145 15.2787 94.492 15.3552 94.4019 15.2938C94.3078 15.2298 94.0083 15.2821 93.8643 15.3877C93.8205 15.4198 93.5773 15.4734 93.3239 15.5069L92.8632 15.5675L92.8948 15.3732C92.9275 15.1721 93.0199 15.0656 93.1749 15.0503C93.2243 15.0455 93.262 15.0123 93.2588 14.9765C93.2556 14.9407 93.3553 14.8799 93.4801 14.8415C93.605 14.8031 93.815 14.6909 93.9466 14.5925C94.0782 14.4941 94.2567 14.3845 94.3431 14.3492C94.4295 14.3138 94.4979 14.2583 94.495 14.2259C94.4886 14.154 94.9493 13.8235 95.1244 13.7745C95.194 13.755 95.3383 13.6657 95.4452 13.5761C95.552 13.4865 95.6894 13.4089 95.7505 13.4036C95.8116 13.3984 95.8836 13.3498 95.9107 13.2958C95.9377 13.2417 96.107 13.1122 96.2868 13.0078C96.4666 12.9036 96.6111 12.789 96.608 12.7534C96.6048 12.7176 96.727 12.6264 96.8795 12.5506C97.032 12.4748 97.1542 12.3845 97.1511 12.3498C97.1481 12.3152 97.194 12.2826 97.2533 12.2775C97.3126 12.2724 97.4201 12.1991 97.4922 12.1146C97.5643 12.0301 97.6245 11.9752 97.6261 11.9926C97.6276 12.0101 97.7404 11.9042 97.8766 11.7573C98.0129 11.6104 98.1857 11.4648 98.2606 11.4337C98.3357 11.4026 98.4374 11.3299 98.4867 11.272C98.536 11.2142 98.6226 11.1629 98.679 11.1581C98.7354 11.1532 98.7788 11.1175 98.7753 11.0786C98.7719 11.0397 98.8039 11.0049 98.8464 11.0013C98.8889 10.9976 99.0051 10.8993 99.1044 10.7828C99.2038 10.6664 99.3987 10.4653 99.5375 10.3362C99.6762 10.207 99.8569 10.0315 99.9389 9.94607C100.021 9.86069 100.181 9.70272 100.295 9.59504C100.409 9.48735 100.5 9.36648 100.498 9.32634C100.497 9.28628 100.547 9.19883 100.611 9.13198C100.675 9.06512 100.769 8.93405 100.82 8.8407C100.872 8.74735 100.962 8.5965 101.02 8.50552C101.079 8.41455 101.161 8.13718 101.203 7.88918C101.269 7.50685 101.261 7.37287 101.154 7.00801C101.072 6.72941 100.971 6.54121 100.868 6.47404C100.781 6.41706 100.625 6.31016 100.523 6.23651C100.421 6.16286 100.318 6.10432 100.294 6.10638C100.27 6.10845 100.157 6.03859 100.042 5.95118C99.8123 5.77565 99.2988 5.62504 99.0093 5.64839C98.9067 5.65665 98.7238 5.6251 98.6031 5.57825C98.4823 5.53147 98.157 5.49994 97.88 5.50825C97.6031 5.51656 97.3213 5.50535 97.2539 5.48338C97.1817 5.4599 97.1224 5.47989 97.1098 5.53203ZM62.1199 12.959C62.3285 13.1362 62.3357 13.1583 62.2759 13.4429C62.2414 13.6069 62.1722 13.7607 62.1223 13.7847C62.0722 13.8088 62.0346 13.8656 62.0386 13.9111C62.0455 13.9886 61.8206 14.2585 61.7436 14.2651C61.7242 14.2668 61.6487 14.3293 61.5758 14.4041C61.5028 14.479 61.3834 14.6013 61.3104 14.6762C61.2374 14.751 61.1757 14.7892 61.1732 14.7611C61.1707 14.7331 61.1269 14.7813 61.0758 14.8682C61.0248 14.9551 60.8969 15.0556 60.7917 15.0914C60.6865 15.1272 60.5403 15.232 60.4669 15.3243C60.273 15.5682 59.9215 15.8486 59.8667 15.8033C59.7839 15.735 58.9996 16.1446 58.8463 16.3362C58.765 16.4377 58.6223 16.5273 58.529 16.5353C58.4357 16.5433 58.2886 16.6047 58.2021 16.6719C57.9779 16.8456 57.7815 16.7742 57.8205 16.5332C57.8373 16.4294 57.8947 16.315 57.9481 16.2791C58.0014 16.2432 58.0414 16.1726 58.0369 16.1222C58.0324 16.0718 58.0869 15.9516 58.158 15.8552C58.229 15.7588 58.2846 15.6511 58.2814 15.6159C58.2783 15.5807 58.3074 15.5675 58.346 15.5867C58.3846 15.6058 58.4313 15.5557 58.4495 15.4752C58.4679 15.3947 58.514 15.3262 58.5521 15.3229C58.5902 15.3196 58.6374 15.2595 58.6572 15.1893C58.6878 15.0806 59.0218 14.6799 59.5588 14.108C59.6316 14.0305 59.8743 13.8297 60.0982 13.6615C60.3221 13.4934 60.5197 13.3348 60.5373 13.3088C60.5549 13.2829 60.7644 13.1422 61.0029 12.9961C61.5145 12.6828 61.7841 12.6738 62.1199 12.959ZM47.3564 15.3327C47.5783 15.3953 47.4848 15.492 47.1796 15.5158C46.8784 15.5392 46.8765 15.5379 47.0446 15.4231C47.2505 15.2827 47.2152 15.2929 47.3564 15.3327ZM109.473 14.3884C110.229 14.5182 110.272 14.7694 109.662 15.5073C109.448 15.7662 109.25 16.0047 109.223 16.0372C108.915 16.4099 108.311 16.8973 108.235 16.8347C108.209 16.813 108.19 16.8324 108.194 16.8777C108.198 16.9231 108.121 16.9671 108.022 16.9756C107.923 16.9841 107.845 17.0229 107.849 17.0618C107.852 17.1006 107.809 17.1364 107.753 17.1412C107.697 17.146 107.643 17.1759 107.633 17.2077C107.609 17.281 106.904 17.6415 106.76 17.6538C106.701 17.6589 106.584 17.7491 106.501 17.8541C106.419 17.9591 106.285 18.0507 106.204 18.0577C106.123 18.0647 106.059 18.0991 106.062 18.1341C106.069 18.2083 105.653 18.4069 105.645 18.3335C105.642 18.3064 105.618 18.3209 105.593 18.3656C105.552 18.4386 104.801 18.6912 104.749 18.6496C104.738 18.6402 104.763 18.4006 104.806 18.1171C104.854 17.804 104.922 17.5984 104.979 17.5935C105.03 17.5891 105.07 17.5602 105.067 17.5291C105.061 17.4594 105.246 17.1659 105.4 16.9993C105.464 16.9308 105.513 16.8377 105.509 16.7921C105.502 16.7203 105.636 16.6158 105.748 16.6054C105.801 16.6005 106.108 16.2035 106.103 16.1467C106.1 16.1207 106.218 16.019 106.364 15.9206C106.511 15.8223 106.643 15.701 106.658 15.6509C106.673 15.6008 106.866 15.4482 107.088 15.3117C107.309 15.1751 107.505 15.0417 107.522 15.0151C107.555 14.9647 108.893 14.3563 109.018 14.3347C109.057 14.3279 109.262 14.3521 109.473 14.3884ZM79.1669 17.465C79.2491 17.6146 79.3489 17.7341 79.3885 17.7307C79.4282 17.7273 79.4657 17.7826 79.4721 17.8536C79.4784 17.9245 79.571 18.0502 79.6779 18.133C79.7848 18.2158 79.876 18.3257 79.8806 18.3772C79.8851 18.4287 79.9191 18.4683 79.9559 18.4651C79.9928 18.4619 80.0474 18.5173 80.0774 18.5881C80.1074 18.659 80.2543 18.821 80.4039 18.9482C80.5534 19.0753 80.6775 19.199 80.6796 19.2232C80.6818 19.2473 80.7363 19.3106 80.8007 19.3638C80.9278 19.4687 80.9738 19.6591 80.8741 19.6677C80.8401 19.6706 80.7022 19.7946 80.5677 19.9432C80.4332 20.0919 80.2931 20.2161 80.2564 20.2192C80.2197 20.2224 80.1926 20.2585 80.1963 20.2995C80.1999 20.3405 80.04 20.4642 79.8407 20.5743C79.6414 20.6845 79.3839 20.8811 79.2682 21.0113C79.1526 21.1414 79.0286 21.2505 78.9927 21.2536C78.9568 21.2566 78.8473 21.3462 78.7494 21.4525C78.6515 21.5588 78.5245 21.6498 78.4672 21.6548C78.4101 21.6597 78.3662 21.6974 78.3699 21.7385C78.3735 21.7797 78.3448 21.7977 78.306 21.7785C78.2673 21.7593 78.2182 21.7777 78.1968 21.8193C78.1756 21.8609 78.0954 21.9004 78.0187 21.907C77.9419 21.9136 77.8202 21.9881 77.7481 22.0726C77.6753 22.158 77.5213 22.2346 77.4015 22.2449C77.283 22.2551 77.1884 22.2898 77.1912 22.3221C77.2016 22.4382 76.3348 22.8266 76.24 22.7484C76.1663 22.6876 76.2842 21.9046 76.3613 21.9428C76.3967 21.9603 76.4611 21.7992 76.5042 21.5847C76.5475 21.3703 76.6261 21.1526 76.6792 21.101C76.7321 21.0495 76.788 20.9123 76.8033 20.7962C76.8186 20.6802 76.8616 20.5825 76.899 20.5793C76.9363 20.5761 76.9906 20.4913 77.0195 20.391C77.0484 20.2906 77.1 20.206 77.1343 20.2031C77.1686 20.2001 77.224 20.0672 77.2575 19.9077C77.291 19.7482 77.3473 19.6152 77.3826 19.6121C77.4178 19.6091 77.4623 19.5381 77.4813 19.4542C77.5004 19.3704 77.5644 19.2405 77.6234 19.1656C77.8247 18.9105 77.9531 18.6799 77.9449 18.5881C77.9404 18.5376 77.9853 18.4923 78.0445 18.4872C78.1038 18.4821 78.1479 18.4292 78.1426 18.3697C78.1374 18.3102 78.177 18.2404 78.2309 18.2145C78.2847 18.1888 78.3418 18.0874 78.3578 17.9894C78.3737 17.8913 78.4174 17.8263 78.4548 17.8448C78.4923 17.8633 78.5386 17.8046 78.558 17.7143C78.5998 17.5184 78.8288 17.2093 78.9389 17.1998C78.982 17.1961 79.0846 17.3155 79.1669 17.465ZM54.2841 19.5033C54.295 19.6265 54.0797 19.7581 53.8794 19.7505C53.7554 19.7458 53.6565 19.7714 53.6597 19.8075C53.6629 19.8435 53.617 19.8771 53.5577 19.8822C53.4985 19.8873 53.4524 19.9182 53.4553 19.9509C53.4582 19.9835 53.335 20.0633 53.1815 20.1282C53.028 20.1931 52.9043 20.2665 52.9065 20.2914C52.9087 20.3163 52.8382 20.3468 52.7496 20.3591C52.4218 20.405 52.2693 20.4521 52.2741 20.5062C52.2768 20.5368 52.2333 20.5658 52.1773 20.5706C52.1213 20.5754 52.0674 20.6128 52.0575 20.6536C52.0476 20.6945 51.9108 20.7434 51.7535 20.7624C51.5962 20.7814 51.3595 20.8635 51.2274 20.9448C51.0953 21.0263 50.7945 21.1236 50.559 21.1613C50.3234 21.199 50.0838 21.2512 50.0264 21.2772C49.6156 21.4634 49.0612 21.6219 48.5433 21.701C48.2098 21.7519 47.7603 21.8217 47.5444 21.8562C47.3285 21.8906 46.9097 21.9431 46.6138 21.9729C46.3178 22.0026 45.9786 22.0668 45.8598 22.1156C45.7048 22.1794 45.5167 22.1865 45.1928 22.141C44.8999 22.0998 44.7283 22.1036 44.7036 22.1519C44.6827 22.1927 44.5947 22.2111 44.5079 22.1927C44.4212 22.1743 44.2501 22.1581 44.1277 22.1568C44.0054 22.1555 43.8326 22.1385 43.7438 22.1189C43.655 22.0994 43.4124 22.0856 43.2045 22.0882C42.9526 22.0915 42.7924 22.0545 42.7238 21.9774C42.6309 21.8729 42.6568 21.8505 42.9916 21.7458C43.5029 21.5858 44.4369 21.356 44.781 21.3054C45.7555 21.1624 46.0942 21.1048 46.3141 21.0446C46.4501 21.0073 46.8513 20.9405 47.2057 20.8962C47.56 20.8518 48.0743 20.7741 48.3485 20.7236C48.6227 20.6731 48.9755 20.6111 49.1325 20.5858C49.2895 20.5606 49.6893 20.4786 50.0211 20.4036C50.3528 20.3287 50.7846 20.2389 50.9805 20.204C51.1765 20.1692 51.5753 20.0755 51.8668 19.9959C52.1583 19.9163 52.5195 19.8389 52.6694 19.824C52.8194 19.8091 52.9754 19.7724 53.0163 19.7424C53.082 19.6942 53.4917 19.5997 54.0844 19.4961C54.1922 19.4772 54.2821 19.4805 54.2841 19.5033ZM106.879 19.1744C106.884 19.2327 106.854 19.2833 106.813 19.2869C106.726 19.2944 106.416 19.6686 106.424 19.7566C106.427 19.789 106.35 19.8425 106.253 19.8754C106.157 19.9082 106.08 19.961 106.083 19.9927C106.086 20.0244 105.976 20.0976 105.839 20.1555C105.702 20.2134 105.574 20.315 105.556 20.3812C105.504 20.5647 105.334 20.6909 105.111 20.7127C104.999 20.7235 104.846 20.7725 104.77 20.8215C104.571 20.9493 104.313 20.8868 104.12 20.664C103.903 20.4131 103.949 20.2858 104.309 20.1449C104.47 20.0817 104.743 19.9614 104.914 19.8777C105.086 19.794 105.354 19.6917 105.509 19.6505C105.665 19.6093 105.823 19.5463 105.86 19.5105C105.965 19.4086 106.605 19.0994 106.744 19.0831C106.813 19.0751 106.873 19.1161 106.879 19.1744ZM98.8851 21.7846C98.913 21.841 98.9129 21.8917 98.8848 21.8973C98.5541 21.9637 98.2268 22.0027 98.2244 21.976C98.2054 21.7624 98.7901 21.5931 98.8851 21.7846ZM98.1137 22.0195C98.2011 22.1348 97.908 22.3403 97.6143 22.3695C97.42 22.3889 97.2988 22.4405 97.2605 22.5202C97.2285 22.5869 97.199 22.6166 97.1951 22.5861C97.1912 22.5557 97.134 22.5652 97.0681 22.6072C97.0022 22.6492 96.6297 22.7645 96.2404 22.8632C95.8511 22.9621 95.5037 23.0851 95.4685 23.1366C95.3896 23.2519 94.7803 23.4396 94.1801 23.5334C93.9332 23.5719 93.6944 23.6343 93.6495 23.6721C93.5516 23.7543 92.769 23.8114 92.5151 23.7549C92.3412 23.7162 92.3446 23.7095 92.6112 23.5648C92.7631 23.4824 92.9527 23.4069 93.0325 23.3971C93.1124 23.3873 93.2377 23.3306 93.3108 23.271C93.3841 23.2115 93.5014 23.1665 93.5714 23.1711C93.6415 23.1757 93.6966 23.1538 93.6938 23.1225C93.691 23.0912 93.8086 23.04 93.9551 23.0088C94.1017 22.9776 94.5223 22.8553 94.89 22.7369C95.2577 22.6185 95.7191 22.4954 95.9153 22.4635C96.4695 22.373 96.8019 22.2962 97.2983 22.1436C97.851 21.9738 98.0555 21.9427 98.1137 22.0195Z" fill="white"/>
</svg>
