<svg width="176" height="30" viewBox="0 0 176 30" fill="none" xmlns="http://www.w3.org/2000/svg">
<g clip-path="url(#clip0)">
<path fill-rule="evenodd" clip-rule="evenodd" d="M26.4466 17.9268C25.9234 18.2576 25.3073 18.2985 24.839 18.0344C24.2441 17.6985 23.9171 16.912 23.9171 15.818V12.5451C23.9171 10.9646 23.2922 9.84 22.2473 9.53634C20.4766 9.02049 19.1449 11.1871 18.6444 12.0007L15.5215 17.0641V10.8754C15.4863 9.45146 15.0239 8.59976 14.1459 8.34293C13.5649 8.17317 12.6956 8.24122 11.8512 9.53341L4.85463 20.768C3.91795 18.9898 3.42967 17.0098 3.43219 15C3.43219 8.23244 8.85561 2.72707 15.5215 2.72707C22.1873 2.72707 27.61 8.23244 27.61 15C27.61 15.0117 27.6129 15.022 27.6137 15.0329C27.6137 15.0446 27.6115 15.0549 27.6122 15.0666C27.6751 16.3771 27.2507 17.4198 26.4466 17.9276V17.9268ZM30.2961 15.0007V15V14.9663L30.2954 14.9327C30.258 6.69073 23.6456 0 15.5207 0C7.37463 0 0.746094 6.72878 0.746094 15C0.746094 23.2705 7.37463 30 15.5215 30C19.2598 30 22.8276 28.579 25.5663 25.9998C26.1107 25.4876 26.1429 24.6249 25.638 24.0732C25.5192 23.9421 25.3754 23.8361 25.2151 23.7614C25.0548 23.6866 24.8812 23.6446 24.7044 23.6378C24.5276 23.6309 24.3513 23.6595 24.1857 23.7217C24.0201 23.7839 23.8686 23.8785 23.74 24C21.5201 26.1022 18.5788 27.2735 15.5215 27.2729C11.9522 27.2729 8.74073 25.6932 6.52585 23.1878L12.8354 13.0566V17.7271C12.8354 19.9705 13.7054 20.6956 14.4349 20.9078C15.1651 21.12 16.281 20.9751 17.4524 19.0727L20.9229 13.4466C21.0341 13.2651 21.1366 13.1085 21.2302 12.9732V15.818C21.2302 17.9151 22.0702 19.5922 23.5344 20.4183C24.8544 21.1632 26.5139 21.0959 27.8661 20.2427C29.5051 19.2073 30.3883 17.2998 30.2961 15.0007ZM50.8666 9.87585C51.2215 10.0917 51.5288 10.5717 51.5288 11.0041C51.5288 11.7 50.9376 12.2759 50.2754 12.2759C50.11 12.2759 49.9446 12.2283 49.8027 12.18C49.0219 11.6041 48.029 11.22 46.9885 11.22C44.53 11.22 42.8273 13.2359 42.8273 15.7317C42.8273 18.2283 44.53 20.22 46.9885 20.22C48.2178 20.22 49.3059 19.7159 50.1334 18.9483C50.3472 18.7946 50.6033 18.7108 50.8666 18.7083C51.5288 18.7083 52.049 19.2359 52.049 19.9083C52.049 20.34 51.7885 20.7241 51.4578 20.94C50.2754 21.9483 48.6678 22.62 47.0127 22.62C43.2298 22.62 40.1551 19.5 40.1551 15.66C40.1551 11.82 43.229 8.7 47.0127 8.7C48.4315 8.7 49.7785 9.13171 50.8666 9.87585ZM57.7841 12.78C60.3612 12.78 62.5366 14.9641 62.5366 17.6517C62.5366 20.34 60.3612 22.62 57.7841 22.62C55.0885 22.62 52.8422 20.34 52.8422 17.6517C52.8422 14.9641 55.0885 12.78 57.7841 12.78ZM57.76 20.22C58.8956 20.22 59.8644 19.14 59.8644 17.6759C59.8644 16.2124 58.8956 15.3 57.76 15.3C56.5307 15.3 55.5137 16.1883 55.5137 17.6759C55.5137 19.14 56.5307 20.22 57.76 20.22ZM64.1573 21.1317V14.2683C64.1573 13.5241 64.7485 12.9 65.4817 12.9C66.2149 12.9 66.8295 13.5241 66.8295 14.2683V21.1317C66.8295 21.8759 66.2149 22.5 65.4817 22.5C64.7485 22.5 64.1573 21.8759 64.1573 21.1317ZM63.9451 10.3083C63.9451 9.42 64.63 8.7 65.4817 8.7C66.3561 8.7 67.0658 9.42 67.0658 10.3083C67.0658 11.1717 66.3561 11.8683 65.4817 11.8683C64.63 11.8683 63.9451 11.1717 63.9451 10.3083ZM71.95 17.4117V21.1317C71.95 21.8759 71.3354 22.5 70.6015 22.5C69.869 22.5 69.2771 21.8759 69.2771 21.1317V13.9559C69.2771 13.38 69.7505 12.9 70.3183 12.9C70.8854 12.9 71.3354 13.38 71.3354 13.9559C72.4227 12.9483 73.368 12.78 74.2666 12.78C76.9388 12.78 78.1212 14.7959 78.1212 17.0759V21.1317C78.1212 21.8759 77.5066 22.5 76.7734 22.5C76.0402 22.5 75.449 21.8759 75.449 21.1317V17.4117C75.449 16.2359 75.3071 15.2517 73.6285 15.2517C72.4461 15.2517 71.9493 16.2359 71.9493 17.4117H71.95ZM86.8117 18.8283C86.5044 18.8283 86.2922 18.6841 86.1261 18.4917L83.0046 15.1083V21.1317C83.0046 21.8759 82.39 22.5 81.6568 22.5C80.9237 22.5 80.3324 21.8759 80.3324 21.1317V9.20488C80.3707 9.1044 80.439 9.01816 80.528 8.95792C80.6171 8.89769 80.7225 8.86639 80.83 8.86829C81.0656 8.86829 81.2544 9.06073 81.3971 9.20488L86.3624 14.7966C86.5044 14.9649 86.6932 15.0607 86.7883 15.0607C86.8827 15.0607 87.0715 14.9649 87.2134 14.7973L92.1795 9.20488C92.3215 9.06073 92.5102 8.86829 92.7466 8.86829C92.9829 8.86829 93.1724 9.01244 93.2434 9.20488V21.1317C93.2434 21.8759 92.6522 22.5 91.919 22.5C91.1859 22.5 90.5712 21.8759 90.5712 21.1317V15.1083L87.4505 18.4917C87.2844 18.6841 87.0715 18.8283 86.8117 18.8283ZM99.6641 20.22C100.87 20.22 101.886 19.14 101.886 17.6759C101.886 16.2124 100.847 15.2517 99.6641 15.2517C98.4817 15.2517 97.5356 16.2359 97.5356 17.6759C97.5356 19.0917 98.4817 20.22 99.6641 20.22ZM102.502 21.4441L102.453 21.1317C101.934 22.1634 100.278 22.62 99.2141 22.62C96.7073 22.62 94.8634 20.34 94.8634 17.6517C94.8634 14.9641 96.7549 12.78 99.3561 12.78C99.8054 12.78 101.295 12.9 102.453 14.2683L102.501 13.9559C102.501 13.38 102.95 12.9 103.518 12.9C104.085 12.9 104.558 13.38 104.558 13.9559V21.4441C104.558 22.02 104.085 22.5 103.517 22.5C102.95 22.5 102.5 22.02 102.5 21.4441H102.502ZM111.972 15.2517H111.689C110.01 15.3483 109.679 16.3083 109.679 17.4117V21.1317C109.679 21.8759 109.064 22.5 108.331 22.5C107.598 22.5 107.007 21.8759 107.007 21.1317V13.9559C107.007 13.38 107.48 12.9 108.047 12.9C108.615 12.9 109.064 13.38 109.064 13.9559C110.057 13.02 110.861 12.8283 111.689 12.78H111.949C112.588 12.78 113.178 13.3317 113.178 14.0283C113.178 14.6759 112.611 15.2517 111.972 15.2517ZM122.271 20.5083C122.39 20.7 122.46 20.9159 122.46 21.1559C122.46 21.8517 121.822 22.5 121.136 22.5C120.663 22.5 120.261 22.14 119.954 21.7559L116.88 18.18V21.1317C116.88 21.8759 116.265 22.5 115.532 22.5C114.799 22.5 114.208 21.8759 114.208 21.1317V10.2366C114.208 9.49171 114.799 8.86829 115.532 8.86829C116.265 8.86829 116.88 9.49171 116.88 10.2366V17.0283L119.954 13.62C120.261 13.26 120.639 12.9 121.113 12.9C121.775 12.9 122.39 13.5241 122.39 14.22C122.39 14.4359 122.342 14.6517 122.223 14.8441L119.788 17.5076L122.271 20.5076V20.5083ZM127.51 15.3C126.777 15.3 125.594 15.6841 125.594 16.8117H129.448C129.448 15.66 128.219 15.3 127.509 15.3H127.51ZM131.009 18.5159H125.594C125.594 20.1241 127.131 20.3641 127.817 20.3641C128.314 20.3641 129.023 20.2683 129.567 20.0276C129.732 19.9083 130.016 19.8117 130.252 19.8117C130.844 19.8117 131.34 20.3166 131.34 20.9166C131.34 21.3241 131.08 21.6841 130.749 21.8759C129.922 22.4759 128.857 22.62 127.841 22.62C125.145 22.62 122.899 21.1566 122.899 17.7717C122.899 15.1083 124.27 12.78 127.462 12.78C130.04 12.78 132.002 14.46 132.05 17.46C132.05 18.0359 131.577 18.5159 131.009 18.5159ZM138.447 22.62H137.714C135.68 22.62 134.498 21.7317 134.498 18.54V15.2517H133.812C133.173 15.2517 132.606 14.6759 132.606 14.0283C132.606 13.3317 133.173 12.78 133.812 12.78H134.498V10.2359C134.498 9.49171 135.089 8.86756 135.822 8.86756C136.555 8.86756 137.17 9.49171 137.17 10.2359V12.78H138.281C138.92 12.78 139.487 13.3317 139.487 14.0283C139.487 14.6759 138.92 15.2517 138.281 15.2517H137.17V18.0117C137.17 19.8359 137.264 20.22 138.069 20.22H138.447C139.085 20.22 139.629 20.7483 139.629 21.42C139.629 22.0683 139.085 22.62 138.447 22.62ZM151.394 9.87585C151.748 10.0917 152.056 10.5717 152.056 11.0041C152.056 11.7 151.465 12.2759 150.802 12.2759C150.637 12.2759 150.471 12.2283 150.33 12.18C149.549 11.6041 148.556 11.22 147.516 11.22C145.057 11.22 143.354 13.2359 143.354 15.7317C143.354 18.2283 145.056 20.22 147.516 20.22C148.745 20.22 149.833 19.7159 150.66 18.9483C150.874 18.7946 151.13 18.7108 151.394 18.7083C152.056 18.7083 152.575 19.2359 152.575 19.9083C152.575 20.34 152.316 20.7241 151.985 20.94C150.802 21.9483 149.194 22.62 147.539 22.62C143.756 22.62 140.682 19.5 140.682 15.66C140.682 11.82 143.755 8.7 147.539 8.7C148.959 8.7 150.306 9.13171 151.394 9.87585ZM158.169 20.22C159.375 20.22 160.391 19.14 160.391 17.6759C160.391 16.2124 159.351 15.2517 158.169 15.2517C156.987 15.2517 156.041 16.2359 156.041 17.6759C156.041 19.0917 156.987 20.22 158.169 20.22H158.169ZM161.006 21.4441L160.959 21.1317C160.439 22.1634 158.784 22.62 157.719 22.62C155.213 22.62 153.369 20.34 153.369 17.6517C153.369 14.9641 155.261 12.78 157.861 12.78C158.31 12.78 159.8 12.9 160.959 14.2683L161.006 13.9559C161.006 13.38 161.455 12.9 162.023 12.9C162.59 12.9 163.064 13.38 163.064 13.9559V21.4441C163.064 22.02 162.59 22.5 162.023 22.5C161.455 22.5 161.006 22.02 161.006 21.4441ZM170.406 20.22C171.589 20.22 172.534 19.0917 172.534 17.6759C172.534 16.2359 171.589 15.2517 170.406 15.2517C169.224 15.2517 168.183 16.2117 168.183 17.6759C168.183 19.14 169.2 20.22 170.406 20.22ZM168.183 21.8283V25.2359C168.183 25.98 167.569 26.6041 166.836 26.6041C166.103 26.6041 165.511 25.98 165.511 25.2359V13.9559C165.511 13.38 165.985 12.9 166.552 12.9C167.12 12.9 167.57 13.38 167.57 14.0517C168.562 13.02 169.792 12.78 170.714 12.78C173.315 12.78 175.206 14.9641 175.206 17.6517C175.206 20.34 173.362 22.62 170.856 22.62C170.076 22.62 168.917 22.38 168.183 21.8283Z" fill="white"/>
</g>
<defs>
<clipPath id="clip0">
<rect width="174.878" height="30" fill="white" transform="translate(0.746094)"/>
</clipPath>
</defs>
</svg>
