<svg width="20" height="20" viewBox="0 0 20 20" fill="none" xmlns="http://www.w3.org/2000/svg">
<path fill-rule="evenodd" clip-rule="evenodd" d="M13.8926 12.8907H11.5625L11.5625 19.8785C16.3431 19.1283 20 14.9913 20 10C20 4.47715 15.5229 0 10 0C4.47715 0 0 4.47715 0 10C0 14.9913 3.65686 19.1283 8.4375 19.8785L8.4375 12.8907H5.89844V10.0001L8.4375 10L8.4375 7.79697M8.43757 7.76766C8.43825 7.62132 8.44405 7.47884 8.45482 7.34026C8.62717 5.12302 10.0732 3.90625 12.2146 3.90625C13.3087 3.90625 14.4531 4.10156 14.4531 4.10156V6.5625L13.1921 6.5626C12.047 6.5626 11.6282 7.2177 11.5698 7.93963C11.5649 8.00078 11.5625 8.06241 11.5625 8.12416V10H14.3359L13.8926 12.8907" fill="white"/>
</svg>
