<svg width="157" height="26" viewBox="0 0 157 26" fill="none" xmlns="http://www.w3.org/2000/svg">
<path d="M47.8086 23.6796V1.63666H51.3427V7.49975H52.0224C52.4981 6.99236 52.9739 6.65411 53.5176 6.42861C54.8768 5.80847 58.0032 5.9776 59.0227 6.76686C59.7703 7.21787 60.1101 8.00713 60.1101 9.07827V23.736H56.5759V8.90914C56.7119 6.87961 51.9544 7.33062 51.3427 8.85277V23.736H47.8086V23.6796Z" fill="white" stroke="white" stroke-width="0.2"/>
<path d="M71.9971 18.8318H75.3953C75.5992 20.1285 75.5992 22.3271 74.036 23.1728C72.5408 24.1312 66.6959 24.0748 65.2007 23.1728C64.2492 22.7218 63.7734 21.8761 63.7055 20.805C63.5695 18.4372 63.5695 11.503 63.7055 9.19155C63.9773 6.93652 65.6085 6.09088 69.6863 6.09088C73.6282 6.09088 75.2594 6.93652 75.4633 9.13518C75.5312 10.2627 75.5312 12.1231 75.3953 13.4761H67.1037C67.1037 14.7164 67.1037 19.7338 67.1716 20.9741C67.1716 21.4815 67.3755 21.8761 67.7833 22.0452C68.395 22.4399 70.7058 22.4399 71.3174 22.0452C71.6573 21.8197 71.8612 21.4815 71.9291 20.9741C72.0651 20.4667 72.0651 19.7338 71.9971 18.8318ZM69.6863 7.61303C67.9192 7.61303 67.3076 7.95129 67.2396 8.90968C67.1716 9.98082 67.1716 10.9392 67.1716 11.954H72.0651C72.0651 10.9392 71.9971 9.69894 71.9971 8.90968C71.9291 8.00766 71.3854 7.61303 69.6863 7.61303ZM68.5309 5.01974L71.4534 2.25732H73.9001L70.9097 5.01974H68.5309Z" fill="white" stroke="white" stroke-width="0.2"/>
<path d="M87.4257 1.63666H90.9599V23.6796H87.4257V22.383H86.8141C86.4063 22.834 85.8626 23.2286 85.3189 23.4541C84.0275 24.0743 80.8332 23.9051 79.8138 23.1159C79.1341 22.6649 78.7264 21.8756 78.6584 20.8045C78.5904 18.2675 78.5904 11.5024 78.6584 8.96552C78.7264 7.89438 79.1341 7.10512 79.8817 6.65411C80.9012 5.86485 84.0955 5.69572 85.3868 6.31585C85.9305 6.54136 86.4063 6.93599 86.882 7.387H87.4257V1.63666ZM84.2314 22.383C85.7946 22.383 86.882 21.932 87.4257 21.0863V8.85277C86.95 7.78163 84.2314 7.10512 82.7362 7.89438C82.3964 8.11988 82.2605 8.45814 82.1925 8.90914C82.0566 11.5588 82.0566 18.493 82.1925 21.03C82.3284 21.8756 82.6683 22.383 84.2314 22.383Z" fill="white" stroke="white" stroke-width="0.2"/>
<path d="M103.397 18.8318H106.796C107 20.1285 107 22.3271 105.436 23.1728C103.941 24.1312 98.0963 24.0748 96.6011 23.1728C95.6496 22.7218 95.1738 21.8761 95.1059 20.805C94.9699 18.4372 94.9699 11.5593 95.1059 9.19155C95.3777 6.93652 97.0088 6.09088 101.087 6.09088C105.029 6.09088 106.66 6.93652 106.864 9.13518C106.932 10.2627 106.932 12.1231 106.796 13.4761H98.5041C98.5041 14.7164 98.5041 19.7338 98.572 20.9741C98.572 21.4815 98.7759 21.8761 99.1837 22.0452C99.7954 22.4399 102.106 22.4399 102.718 22.0452C103.058 21.8197 103.262 21.4815 103.33 20.9741C103.465 20.4667 103.465 19.7338 103.397 18.8318ZM101.087 7.61303C99.3196 7.61303 98.708 7.95129 98.64 8.90968C98.572 9.98082 98.572 10.9392 98.572 11.954H103.465C103.465 10.9392 103.397 9.69894 103.397 8.90968C103.33 8.00766 102.786 7.61303 101.087 7.61303ZM99.9313 5.01974L102.854 2.25732H105.3L102.31 5.01974H99.9313Z" fill="white" stroke="white" stroke-width="0.2"/>
<path d="M110.396 23.6795V6.20303H113.931V7.49967H114.61C115.086 6.99229 115.562 6.65403 116.105 6.42853C118.144 5.63927 121.882 6.09027 122.358 7.61242H123.038C123.446 7.10504 123.989 6.76678 124.669 6.48491C126.096 5.8084 129.223 5.97752 130.31 6.76678C130.99 7.21779 131.397 8.00705 131.397 9.07819L131.465 23.7359H127.931L127.863 8.90907C127.795 8.06343 127.388 7.55605 125.824 7.55605C124.329 7.55605 123.31 8.00705 122.698 8.90907L122.766 23.7359H119.232L119.164 8.90907C119.164 8.45806 118.96 8.1198 118.62 7.8943C117.125 7.10504 114.406 7.78155 113.931 8.85269V23.7359H110.396V23.6795Z" fill="white" stroke="white" stroke-width="0.2"/>
<path d="M141.457 23.9051C137.04 23.9051 135.68 22.9467 135.409 20.5226C135.341 19.0004 135.273 13.3629 135.341 11.7843C135.409 10.1494 135.137 7.83802 136.904 6.82325C138.331 5.75211 144.652 5.75211 146.079 6.82325C146.962 7.33064 147.438 8.23265 147.574 9.41654C147.642 11.6716 147.642 18.2676 147.574 20.5226C147.234 22.9467 145.875 23.8488 141.457 23.9051ZM141.457 22.3266C143.292 22.3266 143.836 21.9884 143.972 20.9736C144.176 18.0984 144.176 11.8407 143.972 8.96554C143.904 7.95077 143.292 7.61252 141.457 7.61252C139.69 7.61252 139.079 8.00715 138.943 8.96554C138.807 11.8407 138.807 18.0984 138.943 20.9736C139.011 21.9884 139.622 22.3266 141.457 22.3266Z" fill="white" stroke="white" stroke-width="0.2"/>
<path d="M151.244 3.66619V1.63666H156.002V3.66619H151.244ZM151.856 23.6796V6.2031H155.458V23.6796H151.856Z" fill="white" stroke="white" stroke-width="0.2"/>
<path d="M0.387813 17.1858L9.98628 1.63601C11.0814 -0.0739267 13.787 -0.554847 14.8821 0.727607L17.7911 3.96645C17.405 4.22325 17.0652 4.55318 16.8118 4.94895L8.37172 18.669L2.83575 20.0713C0.64549 20.6056 -0.707315 19.0026 0.387813 17.1858Z" fill="white"/>
<path d="M24.2859 7.407L14.6874 23.0102C13.5923 24.827 14.9451 26.43 17.1353 25.8957L36.3323 21.0331C38.5225 20.4987 39.8753 18.3613 38.7802 17.2391L29.1817 6.55203C28.0866 5.21614 25.381 5.69706 24.2859 7.407Z" fill="white"/>
</svg>
