<svg width="21" height="20" viewBox="0 0 21 20" fill="none" xmlns="http://www.w3.org/2000/svg">
<path d="M17.0901 16.9216H14.1182V12.3133C14.1182 11.2144 14.0984 9.79979 12.5725 9.79979C11.0246 9.79979 10.7878 10.9971 10.7878 12.2333V16.9213H7.81585V7.44474H10.6689V8.73982H10.7088C10.9944 8.25644 11.407 7.85879 11.9027 7.58922C12.3984 7.31965 12.9587 7.18825 13.5238 7.20902C16.536 7.20902 17.0914 9.1708 17.0914 11.7229L17.0901 16.9216ZM4.46253 6.14936C4.12143 6.14942 3.78796 6.04933 3.50431 5.86174C3.22066 5.67415 2.99957 5.40749 2.86898 5.09548C2.73839 4.78347 2.70416 4.44012 2.77065 4.10885C2.83714 3.77759 3.00134 3.47328 3.2425 3.23442C3.48365 2.99556 3.79092 2.83286 4.12546 2.76691C4.46 2.70096 4.80677 2.73472 5.12193 2.86391C5.43709 2.9931 5.70648 3.21193 5.89604 3.49272C6.08559 3.77351 6.18681 4.10365 6.18687 4.44139C6.18691 4.66565 6.14233 4.88771 6.0557 5.09491C5.96907 5.30211 5.84208 5.49038 5.68196 5.64898C5.52184 5.80758 5.33172 5.9334 5.12249 6.01925C4.91327 6.10511 4.68901 6.14932 4.46253 6.14936ZM5.94849 16.9216H2.97347V7.44474H5.94849V16.9216ZM18.5718 0.00135306H1.48008C1.09215 -0.00298164 0.718332 0.145358 0.440802 0.413775C0.163272 0.682191 0.00473451 1.04872 0 1.43283V18.4264C0.00457246 18.8107 0.163016 19.1775 0.440537 19.4461C0.718058 19.7148 1.09196 19.8635 1.48008 19.8594H18.5718C18.9606 19.8642 19.3356 19.716 19.6142 19.4473C19.8928 19.1786 20.0523 18.8114 20.0577 18.4264V1.43161C20.0522 1.04674 19.8926 0.679787 19.6139 0.411376C19.3353 0.142966 18.9605 -0.00494951 18.5718 0.000126457" fill="white"/>
</svg>
