<svg width="99" height="24" viewBox="0 0 99 24" fill="none" xmlns="http://www.w3.org/2000/svg">
<path d="M34.5484 0.290984C34.8009 0.290984 35.0282 0.257009 35.0536 0.215493C35.079 0.173892 35.1389 0.164399 35.1866 0.194223C35.2343 0.224047 35.7192 0.259467 36.2641 0.272854C36.8089 0.286241 37.3237 0.319283 37.4079 0.346395C37.4922 0.373423 37.7303 0.412823 37.9369 0.43392C38.6721 0.509073 39.2103 0.652855 40.3454 1.07759C41.7078 1.58731 41.7466 1.60104 41.7466 1.56994C41.7466 1.55664 41.9245 1.66959 42.1419 1.82082C42.4463 2.03273 42.5609 2.17812 42.6409 2.45373C42.698 2.65056 42.7446 2.86881 42.7443 2.93871C42.7433 3.22611 42.607 3.89622 42.4937 4.17048C42.4271 4.3318 42.3965 4.4638 42.4258 4.4638C42.4551 4.4638 42.4387 4.51303 42.3893 4.57319C42.2524 4.7401 41.5651 6.74915 41.4982 7.17796C41.4098 7.74495 41.3834 7.87679 40.9911 9.7169C40.9762 9.7868 40.9375 10.0245 40.905 10.245C40.8726 10.4655 40.7943 10.6894 40.731 10.7425C40.6677 10.7956 40.616 10.8926 40.616 10.9579C40.616 11.0856 40.2802 11.2571 39.956 11.2949C39.7228 11.3222 39.6291 11.2207 38.9677 10.2253C38.7044 9.82916 38.4018 9.3907 38.295 9.2509C38.1882 9.1111 38.0725 8.95859 38.038 8.91199C38.0035 8.86539 37.8378 8.65569 37.6697 8.44599C37.5017 8.23629 37.2146 7.79782 37.0316 7.47162C36.0979 5.80699 35.2498 4.90498 33.9182 4.16031C33.7583 4.07093 33.5526 3.93044 33.4611 3.84809C33.3696 3.76573 33.1423 3.65695 32.9561 3.60628C32.7698 3.5557 32.5961 3.47953 32.57 3.43716C32.5437 3.39472 32.1437 3.33786 31.6808 3.31075C30.5441 3.24415 30.2153 3.42988 29.7145 4.42144C29.1559 5.52756 29.1192 6.66722 29.5919 8.23417C29.7606 8.79337 29.9101 9.28903 29.9241 9.33563C29.9382 9.38223 30.0083 9.5571 30.08 9.72427C30.1518 9.89143 30.2377 10.1202 30.2711 10.2326C30.3286 10.4272 30.872 11.5797 32.1793 14.2804C33.1021 16.1868 35.3267 19.449 36.5195 20.6449L37.155 21.2822L37.2314 20.765C37.3081 20.2449 37.3235 16.8425 37.2529 16.0021C37.2321 15.7541 37.1771 15.5254 37.1308 15.4937C37.0846 15.4619 36.7851 15.2234 36.4653 14.9635C36.1455 14.7038 35.7131 14.3905 35.5044 14.2674C34.344 13.5832 34.4325 12.8644 35.7164 12.5461C35.9116 12.4977 37.6928 12.5036 38.0615 12.5538C38.2982 12.5861 38.6236 12.6197 39.8203 12.7357C40.0967 12.7624 40.3485 12.8001 40.3799 12.8194C40.4112 12.8388 41.2141 12.8602 42.1641 12.8671C44.1251 12.8814 44.0621 12.8571 44.0093 13.5782C43.9925 13.8078 44.0112 14.2435 44.0509 14.5464C44.1531 15.327 44.2496 16.4851 44.2416 16.834C44.2378 16.9971 44.2282 17.3784 44.2203 17.6813C44.2125 17.9842 44.2091 18.6705 44.213 19.2064C44.2207 20.2783 44.2011 20.4826 44.0551 20.8585C43.9418 21.1503 43.3125 21.8329 43.1568 21.8329C43.0994 21.8329 42.9636 21.9187 42.8549 22.0235C42.5984 22.2711 42.1529 22.5107 41.9492 22.5107C41.8609 22.5107 41.7885 22.5442 41.7885 22.5852C41.7885 22.6261 41.6661 22.7052 41.5163 22.7609C41.3666 22.8166 41.0368 22.9603 40.7835 23.0802C40.5301 23.2001 40.1155 23.3464 39.8622 23.4054C39.6088 23.4644 39.1754 23.5696 38.899 23.6391C37.8134 23.9122 37.3674 23.9679 36.0692 23.9928C34.9489 24.0142 34.6413 23.9926 34.246 23.8648C33.9845 23.7804 33.5676 23.6852 33.3196 23.6535C32.9275 23.6034 31.3681 23.0671 30.3604 22.6359C29.0743 22.0856 26.0743 19.5309 25.2818 18.3111C24.168 16.5971 24.0662 16.4117 23.8881 15.7749C23.5694 14.6346 23.5274 14.3501 23.4827 13.0213C23.4663 12.532 23.4469 12.1126 23.4397 12.0893C23.4325 12.066 23.4325 12.0139 23.4397 11.9737C23.4469 11.9334 23.471 11.6284 23.4934 11.2959C23.5467 10.5037 23.7688 9.48763 24.098 8.53072C24.122 8.46082 24.1508 8.3655 24.1621 8.3189C24.2706 7.86747 24.8581 6.60258 25.1438 6.20537C25.4385 5.79572 25.6494 5.46291 25.8315 5.12044C25.9493 4.89913 26.0826 4.71799 26.1279 4.71799C26.1732 4.71799 26.2103 4.67952 26.2103 4.6325C26.2103 4.44322 27.411 3.19925 27.8874 2.89499C28.0705 2.77807 28.2204 2.65123 28.2204 2.61302C28.2204 2.57489 28.324 2.48957 28.4507 2.42349C28.5773 2.3574 28.7564 2.23268 28.8485 2.14643C28.9406 2.06009 29.2045 1.87733 29.4348 1.74016C29.6651 1.60299 29.9101 1.45556 29.9792 1.41252C30.4069 1.14639 31.3549 0.78774 31.9767 0.656836C33.0542 0.430106 34.0319 0.290984 34.5484 0.290984Z" fill="url(#paint0_linear)"/>
<path d="M50.123 1.11394C52.187 1.0931 53.8938 1.05768 53.916 1.03531C53.9381 1.01294 53.9969 1.01998 54.0466 1.05107C54.0963 1.08217 54.3643 1.11691 54.6421 1.12826C54.92 1.13961 55.2792 1.16995 55.4404 1.19554C55.6017 1.22121 56.0728 1.26154 56.4874 1.28518C57.374 1.33576 57.699 1.41353 57.8175 1.60366C57.9257 1.7771 57.7104 2.04018 57.2776 2.2636C57.1134 2.34842 56.8623 2.5255 56.7197 2.65708C56.5771 2.78866 56.4178 2.90643 56.3657 2.91872C56.1226 2.97608 55.6018 3.38506 55.5045 3.59493C55.4211 3.77463 55.3992 4.57836 55.4091 7.09035C55.4162 8.88445 55.4261 10.5341 55.4312 10.7562L55.4404 11.1601L57.2621 11.1085C58.264 11.0802 59.6437 11.0575 60.3282 11.058L61.5725 11.0592L61.519 7.57084C61.448 2.946 61.4642 3.15875 61.1619 2.86653C60.9113 2.62429 60.4324 2.34605 60.2644 2.34511C60.2138 2.34478 60.0758 2.29352 59.9576 2.23107C59.8394 2.16871 59.6509 2.09339 59.5388 2.0639C59.4267 2.03433 59.2522 1.87945 59.1509 1.71974C58.9769 1.44531 58.9746 1.42048 59.109 1.26535C59.1873 1.1752 59.3266 1.09665 59.4188 1.09089C59.6595 1.07573 61.9314 1.06649 61.9314 1.08064C61.9314 1.11564 62.9668 1.15461 63.7321 1.14834C65.1001 1.13724 69.0078 1.13987 70.371 1.15283C70.9626 1.15842 71.27 1.3333 71.27 1.66425C71.27 1.85802 71.156 1.97613 70.5641 2.39587C70.1759 2.67115 69.5902 3.06724 69.2626 3.2761C68.9018 3.50613 68.6489 3.72905 68.6209 3.84174C68.5491 4.13134 68.5326 11.4164 68.6012 12.5553C68.6782 13.8333 68.7399 15.7974 68.7971 18.7827C68.8215 20.0642 68.8542 21.2462 68.8696 21.4093C68.8851 21.5724 68.8669 21.7685 68.8293 21.8452C68.7155 22.0771 68.9249 22.1539 69.6792 22.1572C70.4833 22.1607 70.7972 22.2503 70.9381 22.5166C71.1234 22.8668 70.9366 22.917 69.218 22.9785C67.5656 23.0376 64.4406 23.0576 61.6594 23.0268C60.7727 23.0169 60.0079 23.0335 59.9597 23.0637C59.833 23.1428 59.3797 22.584 59.4096 22.3856C59.4434 22.1618 59.6834 22.1056 60.6478 22.0956L61.458 22.0871L61.4902 21.3881C61.5079 21.0037 61.5202 19.0592 61.5175 17.067C61.5148 15.0749 61.5422 13.4449 61.5784 13.4449C61.6146 13.4449 61.6108 13.3782 61.5699 13.2966C61.5291 13.215 61.5061 12.8944 61.5188 12.584C61.5403 12.056 61.5295 12.0166 61.3484 11.9706C61.0282 11.8893 55.5894 12.0425 55.433 12.1373C55.3891 12.1638 55.4132 18.5703 55.4672 21.1943C55.491 22.3521 55.3548 22.2103 56.4729 22.2409C56.9828 22.2548 57.0711 22.2833 57.2894 22.5041C57.5574 22.7752 57.5465 22.9385 57.2496 23.0992C57.0727 23.1951 56.1473 23.2822 56.0757 23.2099C56.0586 23.1926 55.3528 23.1619 54.5072 23.1419C53.6616 23.1219 52.4421 23.0895 51.7971 23.0701C51.1522 23.0506 49.72 23.0104 48.6145 22.9805C46.8739 22.9337 46.5793 22.9064 46.4178 22.7773C46.3152 22.6953 46.221 22.5367 46.2084 22.425C46.1733 22.1125 46.5071 21.997 47.5035 21.9771L48.3632 21.96L48.3284 21.7058C48.2992 21.4933 48.2959 15.9898 48.3242 14.9488C48.3258 14.8906 48.3432 12.4028 48.3629 9.42035L48.3987 3.9978L48.2024 3.77175C48.0945 3.64737 47.6154 3.26076 47.1377 2.91262C45.8539 1.97672 45.7244 1.7777 46.1379 1.37694L46.3701 1.15181L50.123 1.11394Z" fill="url(#paint1_linear)"/>
<path d="M72.368 1.6312C72.2151 1.53563 72.3744 1.25391 72.5976 1.22519C72.7196 1.20943 73.0079 1.21426 73.2382 1.23586C73.6107 1.27085 78.847 1.27577 79.2685 1.24154C79.3606 1.23408 79.6998 1.2312 80.0223 1.2351C80.3447 1.23908 82.5873 1.22646 85.0057 1.20714C89.5796 1.17062 90.7798 1.20231 91 1.36516C91.1102 1.44666 91.1305 1.70652 91.1301 3.02632C91.1295 5.03775 91.0466 8.1364 90.9817 8.57308C90.9133 9.03374 90.6253 9.32444 90.3444 9.21642C90.2259 9.17075 90.1125 9.04187 90.0817 8.91783C89.9923 8.55749 88.8455 7.34504 87.8908 6.60147C86.7657 5.72531 85.3589 4.96895 84.1262 4.5776C83.8959 4.50448 83.6509 4.42305 83.5818 4.3967C83.5127 4.37027 83.3997 4.33934 83.3306 4.3279C83.2615 4.31638 82.9269 4.24546 82.5871 4.17022C82.2473 4.09498 81.9525 4.05033 81.932 4.07109C81.9053 4.09804 81.8812 8.97892 81.9044 9.65742C81.9078 9.75587 82.9726 9.59904 83.2441 9.46017C83.3147 9.42408 83.6362 9.26937 83.9586 9.11644C84.3658 8.92326 84.7046 8.67416 85.0683 8.30068C85.3563 8.00507 85.5919 7.72699 85.5919 7.68285C85.5919 7.63871 85.6799 7.54432 85.7875 7.47298C85.9673 7.35377 86.0115 7.35877 86.3358 7.53458C86.7072 7.73589 86.6974 7.70115 86.5566 8.3189C86.5196 8.48098 86.2847 10.7235 86.277 10.9878C86.2749 11.0577 86.2575 11.4879 86.2383 11.9438C86.219 12.3997 86.2298 12.7894 86.2623 12.8097C86.2948 12.83 86.3076 13.048 86.2908 13.294C86.2739 13.5401 86.2376 14.1608 86.2099 14.6734C86.1822 15.186 86.1208 15.654 86.0733 15.7133C85.9768 15.834 85.7056 15.7749 85.527 15.5943C85.464 15.5306 85.3784 15.4784 85.3368 15.4784C85.2673 15.4784 84.9219 14.8022 84.9219 14.6662C84.9219 14.6339 84.6824 14.3687 84.3896 14.0769C84.0078 13.6963 83.6588 13.4504 83.1543 13.2066C82.2625 12.7757 81.9115 12.6927 81.8946 12.9087C81.8378 13.6322 81.8285 14.0878 81.8328 15.9444C81.8355 17.1094 81.8438 18.6445 81.8513 19.3558L81.8649 20.649L82.4093 20.6138C82.9436 20.5792 83.6276 20.4452 83.9587 20.3101C84.2427 20.1943 84.8067 20.0536 84.9875 20.0536C85.0819 20.0536 85.1717 20.025 85.1871 19.9901C85.2025 19.9552 85.4223 19.8528 85.6757 19.7628C87.1533 19.2375 89.2214 17.345 89.8748 15.9203C90.0352 15.5704 90.1872 15.3615 90.318 15.3112C90.4276 15.2691 90.5419 15.1942 90.5721 15.1447C90.6543 15.0102 90.7651 15.0349 90.9592 15.2313C91.1295 15.4035 91.1325 15.4588 91.0841 17.4977C90.989 21.5062 90.8427 23.0149 90.5484 23.0229C90.4711 23.0251 89.409 23.0433 88.1883 23.0634C86.9676 23.0836 85.9311 23.1042 85.8851 23.1094C85.839 23.1146 85.7071 23.113 85.5919 23.1059C85.4768 23.0987 84.968 23.1174 84.4613 23.1472C83.1713 23.2232 79.218 23.2429 79.1756 23.1736C79.1563 23.1421 79.0309 23.1481 78.8968 23.187C78.7627 23.2259 78.63 23.2346 78.6019 23.2061C78.5738 23.1777 77.4874 23.1449 76.1876 23.1333C72.8786 23.1038 72.7999 23.0959 72.5157 22.7667C72.1022 22.2875 72.3883 22.0875 73.535 22.0538L74.327 22.0305L74.3389 21.7411C74.3581 21.2725 74.3639 19.0627 74.3556 15.3513C74.3513 13.4407 74.3554 10.0481 74.3647 7.81231L74.3816 3.7471L74.1868 3.58951C73.7097 3.20332 72.3621 1.81557 72.4016 1.751C72.4256 1.71169 72.4105 1.6578 72.368 1.6312Z" fill="url(#paint2_linear)"/>
<path d="M92.9979 20.11C93.2807 18.8766 93.9338 18.0463 95.0797 17.4639C95.3919 17.3052 95.6997 17.2086 95.8511 17.2217C96.3454 17.2649 96.9256 17.4359 97.2694 17.6397C97.6225 17.849 98.574 18.698 98.4556 18.698C98.4203 18.698 98.488 18.8141 98.6061 18.956C99.0766 19.5217 99.1312 20.4718 98.7397 21.2822C98.6047 21.5618 98.4463 21.8668 98.3876 21.96C98.1067 22.4068 97.8875 22.6802 97.8101 22.6802C97.7634 22.6802 97.6051 22.7719 97.4585 22.8839C97.3118 22.9959 97.0034 23.1429 96.7731 23.2105C96.2346 23.3687 95.0413 23.3317 94.7833 23.1489C94.6825 23.0775 94.5211 23.0191 94.4246 23.0191C94.2158 23.0191 93.5486 22.5213 93.5486 22.3655C93.5486 22.3056 93.5168 22.2565 93.478 22.2565C93.3692 22.2565 93.0693 21.5857 92.9635 21.1055C92.8867 20.7576 92.8934 20.566 92.9979 20.11Z" fill="url(#paint3_linear)"/>
<path fill-rule="evenodd" clip-rule="evenodd" d="M9.1663 0.0667135C9.0281 0.0974695 8.78882 0.127208 8.63454 0.132715C8.48027 0.138223 8.23528 0.19609 8.09014 0.261415C7.94499 0.326655 7.75085 0.399518 7.65872 0.423242C7.56659 0.44705 7.09547 0.625148 6.61179 0.819005C6.12811 1.01286 5.60046 1.21494 5.43924 1.26815C5.27801 1.32135 4.79902 1.60459 4.37489 1.89758C3.95068 2.19065 3.58433 2.43035 3.56072 2.43035C3.49539 2.43035 2.50692 3.44191 2.15222 3.87173C1.9796 4.08092 1.83823 4.31646 1.83814 4.39526C1.83798 4.47406 1.79526 4.56514 1.74325 4.59768C1.57733 4.70138 0.933935 6.17902 0.78703 6.79381C0.709139 7.12001 0.614916 7.44858 0.577729 7.52398C0.486521 7.70903 0.347154 8.24425 0.282579 8.65781C0.253516 8.84421 0.197234 9.05814 0.157618 9.1333C0.117919 9.20837 0.0653209 9.41807 0.0406972 9.5993C-0.0103091 9.97422 -0.0145804 11.917 0.0347507 12.3011C0.225208 13.7842 0.55344 15.3203 0.802023 15.8913C0.91107 16.1418 1.00027 16.3992 1.00027 16.4632C1.00027 16.5274 1.03796 16.5798 1.08402 16.5798C1.13009 16.5798 1.16778 16.632 1.16778 16.6957C1.16778 16.8476 2.08631 18.6472 2.18254 18.6838C2.22325 18.6994 2.25658 18.759 2.25658 18.8163C2.25658 18.8736 2.36965 19.03 2.50784 19.164C2.64604 19.2979 2.7591 19.4386 2.7591 19.4766C2.7591 19.6517 4.39147 21.1551 4.58151 21.1551C4.62624 21.1551 4.76284 21.2346 4.88512 21.3319C5.11419 21.5142 5.68598 21.8343 6.7793 22.3923C7.12479 22.5686 7.46399 22.7575 7.53309 22.8121C7.60219 22.8667 7.79298 22.9321 7.95705 22.9573C8.12121 22.9826 8.43035 23.0864 8.64409 23.1881C8.85791 23.2897 9.07073 23.3492 9.11705 23.3202C9.16336 23.2912 9.38707 23.329 9.61404 23.4041C10.0609 23.5519 11.7258 23.608 12.5583 23.5033C13.2834 23.412 14.3544 23.1534 14.7905 22.9642C14.9356 22.9011 15.1009 22.8496 15.1579 22.8496C15.345 22.8496 16.6092 22.1706 17.1777 21.7648C18.2928 20.9687 19.4003 19.9206 19.6572 19.4182C19.8078 19.1237 20.108 18.6781 20.2044 18.6061C20.3016 18.5335 20.7662 17.5171 20.7662 17.3771C20.7662 17.3114 20.801 17.2576 20.8435 17.2576C20.886 17.2576 20.9673 17.1147 21.0243 16.9399C21.0812 16.7652 21.2023 16.4887 21.2934 16.3256C21.715 15.5699 22.0071 14.7512 22.2305 13.6991C22.4124 12.8418 22.4681 11.635 22.3633 10.8184C22.1997 9.54338 22.0148 8.40812 21.9424 8.23417C21.9037 8.14097 21.8243 7.93695 21.7661 7.78079C21.7079 7.62464 21.5759 7.37122 21.4729 7.21761C21.3699 7.06409 21.2599 6.85659 21.2285 6.75661C21.1182 6.40499 19.683 4.39306 19.4799 4.30528C19.4399 4.288 19.3455 4.1981 19.2701 4.10558C18.9727 3.74065 18.4446 3.24636 18.0861 2.99751C17.8788 2.85364 17.6715 2.69139 17.6255 2.63691C17.5038 2.49305 16.338 1.75253 16.2332 1.75253C16.1843 1.75253 16.0485 1.67628 15.9314 1.58308C15.8142 1.48988 15.668 1.41362 15.6063 1.41362C15.4643 1.41362 14.7034 1.05361 14.6662 0.968803C14.6508 0.933811 14.5359 0.905257 14.4107 0.905257C14.2855 0.905257 14.1473 0.872894 14.1036 0.833241C13.8606 0.613459 12.4536 0.203546 11.4824 0.0696767C10.8177 -0.0219136 9.57192 -0.0235211 9.1663 0.0667135ZM10.5059 6.09972C10.0506 5.65566 8.29023 4.44431 7.77112 4.21767C7.20771 3.97171 6.66121 3.91757 6.4901 4.09067C6.08356 4.50193 6.02267 5.06223 6.28323 5.99415C6.34102 6.20097 6.3798 6.45278 6.36933 6.55386C6.35894 6.65486 6.39068 6.88896 6.43993 7.07417C6.48926 7.2593 6.54404 7.56296 6.56179 7.74894C6.59504 8.09844 6.9685 9.25946 7.16759 9.63217C7.25997 9.80527 7.42371 10.1909 7.49121 10.3947C7.57547 10.649 7.70847 10.898 7.78586 10.9464C7.83846 10.9792 8.06887 11.3928 8.29793 11.8654C8.527 12.338 8.90121 13.0679 9.12944 13.4873C9.35767 13.9067 9.60475 14.3928 9.67854 14.5675C9.75232 14.7423 9.84621 14.8853 9.88733 14.8853C9.92837 14.8853 9.96196 14.9365 9.96196 14.9992C9.96196 15.0619 10.0364 15.1814 10.1275 15.2648C10.2185 15.348 10.2729 15.4493 10.2481 15.4897C10.2235 15.53 10.2412 15.5631 10.2874 15.5631C10.379 15.5631 10.4714 15.7176 10.9257 16.6308C11.0904 16.9618 11.3366 17.3407 11.473 17.4727C11.6092 17.6048 11.7208 17.7442 11.7208 17.7824C11.7208 17.8207 11.9752 18.1109 12.2861 18.4275C12.597 18.7441 12.9645 19.1372 13.1027 19.3012C13.3612 19.6077 14.0715 20.1384 14.2234 20.1384C14.2704 20.1384 14.3451 20.204 14.3895 20.2842C14.4496 20.3927 14.5631 20.4251 14.8334 20.4105C15.3488 20.3828 15.478 20.3536 15.5911 20.2392C15.6459 20.1837 15.7304 20.1379 15.7787 20.1373C15.9392 20.1354 16.2164 19.5937 16.2767 19.164C16.3777 18.4448 16.3643 16.8159 16.2534 16.3256C16.1954 16.0693 16.1276 15.7071 16.1026 15.5207C16.0776 15.3343 16.0274 15.1437 15.991 15.0971C15.9392 15.0307 15.799 14.6022 15.7001 14.2074C15.59 13.7679 15.3372 13.1023 15.2212 12.9463C15.1386 12.8351 15.0707 12.6635 15.0705 12.565C15.0701 12.4665 15.0202 12.2905 14.9594 12.174C14.4604 11.2181 14.1959 10.7512 14.0714 10.6065C13.8749 10.3784 13.4434 9.71012 13.3735 9.52601C13.3191 9.38257 13.2092 9.22489 12.2067 7.8529C11.9514 7.5034 11.4875 6.98868 11.1761 6.70908C10.8645 6.42948 10.563 6.15521 10.5059 6.09972Z" fill="url(#paint4_linear)"/>
<defs>
<linearGradient id="paint0_linear" x1="-9.62832e-07" y1="5.00001" x2="96.5" y2="21" gradientUnits="userSpaceOnUse">
<stop stop-color="#8EDEC0"/>
<stop offset="0.278877" stop-color="#C8D971"/>
<stop offset="0.440338" stop-color="#F1CB44"/>
<stop offset="0.674717" stop-color="#FFBF50"/>
<stop offset="0.846595" stop-color="#FD8C5E"/>
<stop offset="1" stop-color="#F4708B"/>
</linearGradient>
<linearGradient id="paint1_linear" x1="-9.62832e-07" y1="5.00001" x2="96.5" y2="21" gradientUnits="userSpaceOnUse">
<stop stop-color="#8EDEC0"/>
<stop offset="0.278877" stop-color="#C8D971"/>
<stop offset="0.440338" stop-color="#F1CB44"/>
<stop offset="0.674717" stop-color="#FFBF50"/>
<stop offset="0.846595" stop-color="#FD8C5E"/>
<stop offset="1" stop-color="#F4708B"/>
</linearGradient>
<linearGradient id="paint2_linear" x1="-9.62832e-07" y1="5.00001" x2="96.5" y2="21" gradientUnits="userSpaceOnUse">
<stop stop-color="#8EDEC0"/>
<stop offset="0.278877" stop-color="#C8D971"/>
<stop offset="0.440338" stop-color="#F1CB44"/>
<stop offset="0.674717" stop-color="#FFBF50"/>
<stop offset="0.846595" stop-color="#FD8C5E"/>
<stop offset="1" stop-color="#F4708B"/>
</linearGradient>
<linearGradient id="paint3_linear" x1="-9.62832e-07" y1="5.00001" x2="96.5" y2="21" gradientUnits="userSpaceOnUse">
<stop stop-color="#8EDEC0"/>
<stop offset="0.278877" stop-color="#C8D971"/>
<stop offset="0.440338" stop-color="#F1CB44"/>
<stop offset="0.674717" stop-color="#FFBF50"/>
<stop offset="0.846595" stop-color="#FD8C5E"/>
<stop offset="1" stop-color="#F4708B"/>
</linearGradient>
<linearGradient id="paint4_linear" x1="-9.62832e-07" y1="5.00001" x2="96.5" y2="21" gradientUnits="userSpaceOnUse">
<stop stop-color="#8EDEC0"/>
<stop offset="0.278877" stop-color="#C8D971"/>
<stop offset="0.440338" stop-color="#F1CB44"/>
<stop offset="0.674717" stop-color="#FFBF50"/>
<stop offset="0.846595" stop-color="#FD8C5E"/>
<stop offset="1" stop-color="#F4708B"/>
</linearGradient>
</defs>
</svg>
