<svg width="113" height="30" viewBox="0 0 113 30" fill="none" xmlns="http://www.w3.org/2000/svg">
<path d="M39.1875 22.2001H42.6651V16.2385H44.1771L47.8707 22.2001H51.5859L47.5035 15.6337C49.3179 15.0937 50.6787 13.8625 50.6787 11.5297V11.4433C50.6787 8.2465 48.3675 6.7561 44.7171 6.7561H39.1875V22.2001ZM42.6651 13.8625V9.43453H44.6307C46.3155 9.43453 47.2659 9.97453 47.2659 11.5513V11.6377C47.2659 13.1281 46.3803 13.8625 44.6307 13.8625H42.6651Z" fill="white"/>
<path d="M57.5569 22.4376C60.6457 22.4376 62.5897 21.0768 62.9569 18.636H59.9977C59.8033 19.5864 59.0905 20.2128 57.6433 20.2128C55.9369 20.2128 54.9217 19.1328 54.8353 17.2536H62.9785V16.3896C62.9785 12.3504 60.3865 10.644 57.4705 10.644C54.1873 10.644 51.6602 12.9552 51.6602 16.5192V16.692C51.6602 20.2992 54.1441 22.4376 57.5569 22.4376ZM54.8785 15.3312C55.1161 13.7328 56.0665 12.804 57.4705 12.804C58.9609 12.804 59.8249 13.6248 59.9329 15.3312H54.8785Z" fill="white"/>
<path d="M64.4648 22.2H67.5752V5.78406H64.4648V22.2Z" fill="white"/>
<path d="M73.544 22.4377C75.4016 22.4377 76.5464 21.5737 77.1296 20.4289V22.2001H80.24V10.9033H77.1296V17.5345C77.1296 19.1977 76.0928 20.0185 74.7752 20.0185C73.436 20.0185 72.8096 19.2841 72.8096 17.7505V10.9033H69.6992V18.1825C69.6992 21.1417 71.3408 22.4377 73.544 22.4377Z" fill="white"/>
<path d="M82.3633 22.2H85.4953V15.5256C85.4953 13.992 86.4673 13.2144 87.6769 13.2144C88.7785 13.2144 89.4481 13.8624 89.4481 15.3096V22.2H92.5583V15.5256C92.5583 13.992 93.5303 13.2144 94.7399 13.2144C95.8631 13.2144 96.5111 13.8624 96.5111 15.3096V22.2H99.6215V14.964C99.6215 11.9616 98.0015 10.644 95.9063 10.644C94.4807 10.644 93.0119 11.2488 92.1047 12.6096C91.5647 11.2704 90.4417 10.644 88.9513 10.644C87.2665 10.644 86.0569 11.5728 85.4953 12.6312V10.9032H82.3633V22.2Z" fill="white"/>
<path d="M106.854 22.4376C109.943 22.4376 111.887 21.0768 112.254 18.636H109.295C109.1 19.5864 108.387 20.2128 106.94 20.2128C105.234 20.2128 104.219 19.1328 104.132 17.2536H112.275V16.3896C112.275 12.3504 109.683 10.644 106.767 10.644C103.484 10.644 100.957 12.9552 100.957 16.5192V16.692C100.957 20.2992 103.441 22.4376 106.854 22.4376ZM104.175 15.3312C104.413 13.7328 105.363 12.804 106.767 12.804C108.258 12.804 109.122 13.6248 109.23 15.3312H104.175Z" fill="white"/>
<path fill-rule="evenodd" clip-rule="evenodd" d="M27.2199 7.67997L27.0099 7.30498C26.739 6.85151 26.357 6.47462 25.8999 6.20998L15.8349 0.404999C15.3792 0.140619 14.8619 0.000935007 14.3349 0H13.9C13.3731 0.000935007 12.8557 0.140619 12.3999 0.404999L2.33499 6.22498C1.88046 6.48786 1.50288 6.86544 1.24 7.31997L1.03 7.69497C0.765619 8.15073 0.625935 8.66808 0.625 9.195V20.8199C0.625935 21.3468 0.765619 21.8642 1.03 22.3199L1.24 22.695C1.50968 23.1442 1.88572 23.5203 2.33499 23.7899L12.415 29.5949C12.8684 29.8648 13.3873 30.0049 13.915 29.9999H14.3349C14.8619 29.999 15.3792 29.8593 15.8349 29.5949L25.8999 23.775C26.359 23.518 26.738 23.139 26.9949 22.6799L27.2199 22.3049C27.4811 21.8479 27.6205 21.3314 27.6249 20.805V9.17997C27.624 8.65308 27.4843 8.13573 27.2199 7.67997ZM13.9 2.99999H14.3349L23.1249 8.06997L14.125 13.2599L5.12498 8.06997L13.9 2.99999ZM15.6249 26.2499L24.3999 21.1799L24.6249 20.805V10.665L15.6249 15.8699V26.2499Z" fill="white"/>
</svg>
