<svg width="142" height="30" viewBox="0 0 142 30" fill="none" xmlns="http://www.w3.org/2000/svg">
<path d="M47.3641 6.4C44.4891 6.4 41.9891 8.1125 41.9891 10.7375C41.9891 13.3875 43.9266 14.65 46.1266 15.575C48.3141 16.4625 49.6891 17.225 49.6891 18.6C49.6891 19.8 48.7641 20.625 46.9516 20.625C44.9766 20.625 42.9516 19.425 42.5641 19.1125L40.9766 21.7375C41.2641 22.0125 43.6641 23.5 46.9266 23.5C50.1266 23.5 52.9391 21.9 52.9391 18.75C52.9391 15.9125 50.7266 14.425 48.3516 13.5C46.2891 12.6875 45.1891 12.0375 45.1891 10.925C45.1891 9.8125 46.1766 9.2375 47.6891 9.2375C49.2641 9.2375 50.6016 10.125 50.9891 10.45L52.5141 7.925C52.2391 7.6875 50.3391 6.4 47.3641 6.4Z" fill="white"/>
<path d="M54.4859 12.9375V15.5625H56.3359V20.15C56.3359 22.45 57.6984 23.5 59.5859 23.5C61.1609 23.5 62.3359 22.9 62.5109 22.7375L61.3984 20.475C61.3359 20.5625 60.9734 20.85 60.4484 20.85C59.7734 20.85 59.4609 20.2875 59.4609 19.3V15.5625H61.8984V12.9375H59.4609V8.725H56.3359V12.9375H54.4859Z" fill="white"/>
<path d="M72.1881 23.2H75.2881V12.9375H72.1631V14.6C71.8756 13.9 70.5881 12.6375 68.5381 12.6375C65.6006 12.6375 63.5006 14.9625 63.5006 18.075C63.5006 21.1875 65.6006 23.5 68.5381 23.5C70.6506 23.5 71.9756 21.975 72.1881 21.4V23.2ZM66.6006 18.075C66.6006 16.35 67.9131 15.15 69.4006 15.15C70.9881 15.15 72.1381 16.375 72.1381 18.075C72.1381 19.7875 70.9881 20.9875 69.4006 20.9875C67.9131 20.9875 66.6006 19.8125 66.6006 18.075Z" fill="white"/>
<path d="M84.4445 12.6375C82.707 12.6375 81.2195 13.7375 80.9695 14.575V12.9375H77.8195V23.2H80.9695V17.625C80.9695 16.0625 82.182 14.9375 83.457 14.9375C84.732 14.9375 85.6195 15.75 85.6195 17.425V23.2H88.782V16.8875C88.782 13.8625 86.5445 12.6375 84.4445 12.6375Z" fill="white"/>
<path d="M102.575 23.2V6H99.4121V14.6C99.2246 13.875 97.7746 12.6375 95.6871 12.6375C92.7621 12.6375 90.7746 14.9625 90.7746 18.075C90.7746 21.1875 92.7621 23.5 95.6871 23.5C97.5371 23.5 99.0371 22.3 99.4496 21.4V23.2H102.575ZM93.8746 18.075C93.8746 16.35 95.0996 15.15 96.5871 15.15C98.1746 15.15 99.4121 16.375 99.4121 18.075C99.4121 19.7875 98.1746 20.9875 96.5871 20.9875C95.0996 20.9875 93.8746 19.8125 93.8746 18.075Z" fill="white"/>
<path d="M116.13 23.5C119.205 23.5 121.38 21.125 121.38 18.1C121.38 15.075 119.205 12.6375 116.13 12.6375C113.067 12.6375 110.855 15.075 110.855 18.1C110.855 21.125 113.067 23.5 116.13 23.5ZM116.13 22.2375C113.792 22.2375 112.217 20.45 112.217 18.1C112.217 15.7375 113.792 13.9 116.13 13.9C118.48 13.9 120.03 15.7375 120.03 18.1C120.03 20.45 118.48 22.2375 116.13 22.2375Z" fill="white"/>
<path d="M125.258 18.3125V12.9375H123.883V18.5625C123.883 21.4125 125.533 23.5 128.471 23.5C131.421 23.5 133.058 21.4125 133.058 18.5625V12.9375H131.683V18.3125C131.683 20.725 130.621 22.2375 128.471 22.2375C126.321 22.2375 125.258 20.725 125.258 18.3125Z" fill="white"/>
<path d="M135.352 12.9375V14.2H137.502V20.6875C137.502 22.65 138.577 23.5 139.964 23.5C141.127 23.5 141.852 23 141.989 22.8625L141.339 21.8C141.277 21.8875 140.902 22.2375 140.202 22.2375C139.452 22.2375 138.877 21.725 138.877 20.325V14.2H141.677V12.9375H138.877V8.725H137.502V12.9375H135.352Z" fill="white"/>
<path fill-rule="evenodd" clip-rule="evenodd" d="M8.0181 29.4146L1.35965 2.3572C0.294298 2.09259 0.161129 0.372548 1.49282 0.0417725C2.82451 -0.289003 3.42377 1.43103 2.425 2.15873L2.56606 2.69442C3.19722 2.98477 4.87449 3.39448 7.61859 3.15106L7.87282 3.12842C11.4747 2.80706 14.1865 2.56511 16.0082 5.79726C18.2721 5.77521 22.9064 6.18096 23.3325 7.98038C23.8652 10.2296 25.3301 14.7282 26.7949 17.0436C27.3809 17.9963 27.5273 18.8078 27.5273 19.0944C26.5952 18.3226 24.1715 16.7658 21.9342 16.7128C19.1377 16.6467 17.2733 16.4482 17.1402 15.7867C17.6728 15.3236 18.0723 14.5297 16.2746 13.9343C14.6316 13.3902 8.37263 13.0118 5.52825 13.9607C7.43685 21.2308 9.28232 28.286 9.41637 28.8854C9.68271 30.0762 8.35102 30.4069 8.0181 29.4146ZM16.0012 6.21991C16.1308 6.17997 16.2686 6.25071 16.3118 6.37931C16.4083 6.66703 16.5306 7.11606 16.6665 7.65858C17.025 8.97034 17.4486 10.5713 17.7772 11.9299C17.9415 12.6093 18.0827 13.2304 18.18 13.7254C18.2287 13.9727 18.2669 14.1909 18.2916 14.3704C18.3155 14.5446 18.3292 14.6993 18.3217 14.8111C18.3146 14.9178 18.2403 15.0081 18.1371 15.0358C18.0338 15.0635 17.9243 15.0225 17.8647 14.9337L17.7315 14.7352C17.7133 14.7081 17.7006 14.6777 17.6941 14.6457C17.3476 12.9415 16.6665 9.71775 16.1828 7.78523C16.056 7.32151 15.9374 6.89405 15.8341 6.52648C15.7974 6.39589 15.8715 6.25985 16.0012 6.21991ZM0.932372 1.39644C1.1001 1.65448 1.54567 1.66502 1.92759 1.41997C2.3095 1.17493 2.48314 0.76709 2.31541 0.509043C2.14769 0.250997 1.70211 0.240459 1.3202 0.485506C0.938283 0.730553 0.764647 1.13839 0.932372 1.39644ZM2.38759 4.5742C2.47617 4.55518 2.56414 4.60878 2.58724 4.69585L4.51819 11.9729C4.54122 12.0597 4.49168 12.1492 4.40558 12.1763C4.31947 12.2034 4.22708 12.1587 4.19554 12.0746C3.77104 10.9425 2.79116 7.90218 2.25631 4.7669C2.24117 4.67812 2.29901 4.59322 2.38759 4.5742ZM4.91141 14.3667C5.00098 14.3438 5.09246 14.3965 5.11699 14.4851C6.33708 18.8932 8.80613 27.8232 8.91331 28.2491C8.95217 28.4036 8.95178 28.5459 8.9111 28.6625C8.87039 28.7791 8.78277 28.8814 8.65125 28.9094C8.51932 28.9375 8.39605 28.8797 8.30775 28.7874C8.22007 28.6958 8.15538 28.5616 8.11771 28.394L8.1174 28.3926L4.78879 14.5689C4.76727 14.4795 4.82184 14.3895 4.91141 14.3667ZM22.6833 7.53743C22.4882 7.38919 22.1777 7.17634 21.8773 7.01927C21.7279 6.94118 21.5717 6.87188 21.4281 6.8335C21.2991 6.79898 21.1165 6.7714 20.965 6.8617C20.8762 6.91465 20.835 7.02081 20.865 7.1193L23.5284 15.8518C23.5454 15.9076 23.5836 15.9546 23.6349 15.9829C23.7631 16.0537 23.8913 16.1215 24.0191 16.1891L24.0192 16.1891L24.0192 16.1892L24.0193 16.1892L24.0194 16.1892L24.0194 16.1893L24.0195 16.1893L24.0195 16.1893C24.7076 16.5533 25.3875 16.9129 26.0318 17.7131C26.0434 17.7275 26.0574 17.744 26.0728 17.759C26.0804 17.7664 26.0918 17.7769 26.1061 17.7873C26.1175 17.7955 26.1464 17.8155 26.1884 17.8263C26.2365 17.8388 26.3253 17.8427 26.4007 17.7748C26.4622 17.7194 26.4726 17.6515 26.4752 17.6298C26.4805 17.5837 26.4705 17.5432 26.4677 17.5317C26.4533 17.4732 26.4148 17.3827 26.3729 17.2895C26.2824 17.0884 26.1302 16.7778 25.9572 16.4292C25.8834 16.2805 25.8056 16.1247 25.7268 15.9668L25.7267 15.9666C25.4331 15.3782 25.1248 14.7602 24.9496 14.3717C24.5236 13.4276 23.9781 11.7542 23.5364 10.3051C23.3163 9.58308 23.1231 8.9207 22.985 8.43882C22.9159 8.1979 22.8606 8.00216 22.8226 7.86672L22.779 7.71068L22.764 7.65643C22.7509 7.60906 22.7226 7.56726 22.6833 7.53743ZM3.28906 5.53265L4.95367 12.0159C5.02026 11.663 5.08684 10.5737 4.82051 9.03887C4.55417 7.50407 3.68857 6.06189 3.28906 5.53265Z" fill="white"/>
</svg>
