<svg width="120" height="30" viewBox="0 0 120 30" fill="none" xmlns="http://www.w3.org/2000/svg">
<path d="M38.748 11.7314C38.748 9.59174 36.6547 7.31923 33.0323 7.31923C28.9645 7.31923 24.4959 10.2853 23.8129 16.2027C23.1152 22.179 26.8564 24.8352 30.6272 24.8352C34.3981 24.8352 36.3726 23.3743 38.3917 21.4265C36.6547 19.2573 34.413 20.2607 33.9824 20.482C33.5074 20.7182 32.8987 21.0428 31.6516 21.0428C30.1967 21.0428 28.7121 20.3935 28.7121 17.6931C38.0354 16.7782 38.748 13.8711 38.748 11.7314ZM34.1309 12.0856C34.0715 12.7496 33.8043 13.8859 29.0833 14.5204C30.0779 11.0084 31.9782 10.7427 32.8541 10.7427C33.6707 10.7427 34.1903 11.3773 34.1309 12.0856ZM18.3348 12.6611C18.3348 12.6611 16.3306 18.9179 16.1673 19.4343C16.1079 18.9031 14.6381 7.67339 14.6381 7.67339C11.2236 7.67339 9.3975 10.0935 8.43251 12.6463C8.43251 12.6463 5.99777 18.9179 5.78993 19.4491C5.77508 18.9621 5.41878 12.7201 5.41878 12.7201C5.21094 9.59174 2.33082 7.68815 0 7.68815L2.82073 24.7024C6.39861 24.6877 8.32859 22.2823 9.33812 19.7295C9.33812 19.7295 11.4908 14.1958 11.5799 13.9449C11.5947 14.181 13.1238 24.7024 13.1238 24.7024C16.7166 24.7024 18.6465 22.4447 19.6858 19.9803L24.7185 7.68815C21.1704 7.68815 19.2998 10.0935 18.3348 12.6611ZM51.9312 7.28972C49.7192 7.28972 48.0267 8.485 46.6015 10.241V10.2263L47.8783 0C44.9388 0 42.5486 2.53812 42.0883 6.31579L39.8614 24.5696C41.5539 24.5696 43.3502 24.0826 44.3152 22.8431C45.1763 23.9498 46.4679 24.8352 48.383 24.8352C53.3416 24.8352 56.7413 19.1097 56.7413 13.7383C56.7116 8.83915 54.3214 7.28972 51.9312 7.28972ZM51.471 16.0698C50.9514 19.0654 49.2738 21.1018 47.6556 21.1018C46.0225 21.1018 45.3248 20.3788 45.3248 20.3788C45.6365 17.7521 45.8295 16.1436 46.4234 14.7565C47.0172 13.3694 48.4276 11.1559 49.8973 11.1559C51.3374 11.1559 51.9906 13.0595 51.471 16.0698ZM69.1229 7.68815H65.6637L65.6786 7.51107C65.9161 5.26808 66.4506 4.08756 68.2172 3.89572C69.4198 3.77767 69.9542 3.15789 70.0878 2.47909C70.1918 1.94786 70.5184 0.103296 70.5184 0.103296C63.5705 0.0590261 61.3881 3.03984 60.824 7.58485L60.8091 7.68815H60.7349C59.6066 7.68815 58.3595 8.95721 58.1517 10.5657L58.0774 11.1559H60.3934L58.4486 27.1225L57.8548 29.9852C57.929 29.9852 58.0181 30 58.0923 30C61.3436 29.8819 63.422 27.3291 63.8822 23.6252L65.3965 11.1559H66.4803C67.5492 11.1559 68.7962 10.0935 69.0189 8.32268L69.1229 7.68815ZM87.1162 7.39301C83.1226 7.39301 79.3517 10.3148 78.1937 14.9041C77.0358 19.4934 78.7876 24.9238 84.6666 24.9238C90.5307 24.9238 93.9156 19.272 93.9156 14.5647C93.9156 9.88687 90.7237 7.39301 87.1162 7.39301ZM88.7344 15.9223C88.5265 18.003 87.6061 21.1608 85.0823 21.1608C82.5436 21.1608 82.8999 17.4717 83.1523 15.7157C83.4195 13.8416 84.4736 11.1707 86.745 11.1707C88.7789 11.1707 88.9719 13.576 88.7344 15.9223ZM113.646 12.6611C113.646 12.6611 111.642 18.9179 111.478 19.4343C111.419 18.9031 109.949 7.67339 109.949 7.67339C106.535 7.67339 104.709 10.0935 103.744 12.6463C103.744 12.6463 101.309 18.9179 101.101 19.4491C101.086 18.9621 100.73 12.7201 100.73 12.7201C100.522 9.59174 97.642 7.68815 95.3111 7.68815L98.117 24.7024C101.695 24.6877 103.625 22.2823 104.634 19.7295C104.634 19.7295 106.787 14.1958 106.861 13.9449C106.891 14.181 108.405 24.7024 108.405 24.7024C111.998 24.7024 113.928 22.4447 114.967 19.9803L120 7.68815C116.467 7.68815 114.596 10.0935 113.646 12.6611ZM72.389 0.103296L69.4792 23.4333L68.8853 26.3109C68.9595 26.3109 69.0486 26.3256 69.1229 26.3256C72.2554 26.2814 74.4822 23.5514 74.8979 20.1131L76.5755 6.72897C77.0803 2.64142 74.6307 0.103296 72.389 0.103296Z" fill="white"/>
</svg>
