<svg width="26" height="18" viewBox="0 0 26 18" fill="none" xmlns="http://www.w3.org/2000/svg">
<path fill-rule="evenodd" clip-rule="evenodd" d="M22.7807 0.550588C23.8756 0.847059 24.7388 1.71529 25.0335 2.81647C25.5809 4.82824 25.5599 9.02118 25.5599 9.02118C25.5599 9.02118 25.5599 13.1929 25.0335 15.2047C24.7388 16.3059 23.8756 17.1741 22.7807 17.4706C20.7806 18 12.7799 18 12.7799 18C12.7799 18 4.80038 18 2.77916 17.4494C1.68434 17.1529 0.821117 16.2847 0.526357 15.1835C0 13.1929 0 9 0 9C0 9 0 4.82824 0.526357 2.81647C0.821117 1.71529 1.7054 0.825882 2.77916 0.529412C4.77932 0 12.7799 0 12.7799 0C12.7799 0 20.7806 0 22.7807 0.550588ZM10.2322 5.146L16.8854 9.00011L10.2322 12.8542V5.146Z" fill="white"/>
</svg>
